<?xml version="1.0" encoding="UTF-8"?>
<svg id="Layer_1" xmlns="http://www.w3.org/2000/svg" xmlns:xlink="http://www.w3.org/1999/xlink" viewBox="0 0 607.96 166.53">
  <defs>
    <style>
      .cls-1 {
        fill: url(#linear-gradient-8);
      }

      .cls-2 {
        fill: url(#linear-gradient-7);
      }

      .cls-3 {
        fill: url(#linear-gradient-5);
      }

      .cls-4 {
        fill: url(#linear-gradient-6);
      }

      .cls-5 {
        fill: url(#linear-gradient-9);
      }

      .cls-6 {
        fill: url(#linear-gradient-4);
      }

      .cls-7 {
        fill: url(#linear-gradient-3);
      }

      .cls-8 {
        fill: url(#linear-gradient-2);
      }

      .cls-9 {
        fill: url(#linear-gradient);
      }

      .cls-10 {
        fill: #fff;
      }

      .cls-11 {
        fill: url(#linear-gradient-10);
      }

      .cls-12 {
        fill: url(#linear-gradient-11);
      }

      .cls-13 {
        fill: url(#linear-gradient-12);
      }

      .cls-14 {
        fill: url(#linear-gradient-13);
      }

      .cls-15 {
        fill: url(#linear-gradient-19);
      }

      .cls-16 {
        fill: url(#linear-gradient-14);
      }

      .cls-17 {
        fill: url(#linear-gradient-21);
      }

      .cls-18 {
        fill: url(#linear-gradient-20);
      }

      .cls-19 {
        fill: url(#linear-gradient-22);
      }

      .cls-20 {
        fill: url(#linear-gradient-23);
      }

      .cls-21 {
        fill: url(#linear-gradient-25);
      }

      .cls-22 {
        fill: url(#linear-gradient-15);
      }

      .cls-23 {
        fill: url(#linear-gradient-16);
      }

      .cls-24 {
        fill: url(#linear-gradient-17);
      }

      .cls-25 {
        fill: url(#linear-gradient-18);
      }

      .cls-26 {
        fill: url(#linear-gradient-24);
      }
    </style>
    <linearGradient id="linear-gradient" x1="-.14" y1="19.7" x2="129.54" y2="114.73" gradientUnits="userSpaceOnUse">
      <stop offset="0" stop-color="#a2e2ef"/>
      <stop offset="1" stop-color="#32c0dc"/>
    </linearGradient>
    <linearGradient id="linear-gradient-2" x1="-.11" y1="19.68" x2="129.56" y2="114.7" xlink:href="#linear-gradient"/>
    <linearGradient id="linear-gradient-3" x1="16.29" y1="-2.7" x2="145.96" y2="92.33" gradientTransform="translate(81.65 -48.85) rotate(60)" xlink:href="#linear-gradient"/>
    <linearGradient id="linear-gradient-4" x1="-3.14" y1="23.81" x2="126.53" y2="118.84" xlink:href="#linear-gradient"/>
    <linearGradient id="linear-gradient-5" x1="-18.42" y1="44.66" x2="111.25" y2="139.69" gradientTransform="translate(111.18 2.3) rotate(60)" xlink:href="#linear-gradient"/>
    <linearGradient id="linear-gradient-6" x1="-8.89" y1="31.65" x2="120.78" y2="126.68" xlink:href="#linear-gradient"/>
    <linearGradient id="linear-gradient-7" x1="-21.68" y1="49.11" x2="107.99" y2="144.14" xlink:href="#linear-gradient"/>
    <linearGradient id="linear-gradient-8" x1="18.36" y1="-5.53" x2="148.03" y2="89.5" xlink:href="#linear-gradient"/>
    <linearGradient id="linear-gradient-9" x1="-.09" y1="19.64" x2="129.58" y2="114.67" xlink:href="#linear-gradient"/>
    <linearGradient id="linear-gradient-10" x1="16.17" y1="-2.54" x2="145.84" y2="92.48" xlink:href="#linear-gradient"/>
    <linearGradient id="linear-gradient-11" x1="-16.35" y1="41.83" x2="113.33" y2="136.86" xlink:href="#linear-gradient"/>
    <linearGradient id="linear-gradient-12" x1="-2.28" y1="22.63" x2="127.4" y2="117.66" xlink:href="#linear-gradient"/>
    <linearGradient id="linear-gradient-13" x1="2.1" y1="16.66" x2="131.77" y2="111.68" gradientTransform="translate(179.52 -33.77) rotate(76.72)" xlink:href="#linear-gradient"/>
    <linearGradient id="linear-gradient-14" x1="-18.54" y1="44.82" x2="111.14" y2="139.85" xlink:href="#linear-gradient"/>
    <linearGradient id="linear-gradient-15" x1="4.06" y1="13.98" x2="133.73" y2="109.01" xlink:href="#linear-gradient"/>
    <linearGradient id="linear-gradient-16" x1="18.59" y1="-5.85" x2="148.26" y2="89.18" xlink:href="#linear-gradient"/>
    <linearGradient id="linear-gradient-17" x1="34.85" y1="-28.03" x2="164.52" y2="67" xlink:href="#linear-gradient"/>
    <linearGradient id="linear-gradient-18" x1="32.81" y1="-25.25" x2="162.48" y2="69.78" gradientTransform="translate(20.19 -39.56) rotate(22.5)" xlink:href="#linear-gradient"/>
    <linearGradient id="linear-gradient-19" x1="30.7" y1="-22.38" x2="160.38" y2="72.65" xlink:href="#linear-gradient"/>
    <linearGradient id="linear-gradient-20" x1="14.21" y1=".13" x2="143.89" y2="95.16" gradientTransform="translate(71.82 -30.48) rotate(76.72)" xlink:href="#linear-gradient"/>
    <linearGradient id="linear-gradient-21" x1="-4.24" y1="25.3" x2="125.44" y2="120.33" xlink:href="#linear-gradient"/>
    <linearGradient id="linear-gradient-22" x1="-20.5" y1="47.49" x2="109.18" y2="142.52" xlink:href="#linear-gradient"/>
    <linearGradient id="linear-gradient-23" x1="-35.12" y1="67.44" x2="94.56" y2="162.47" xlink:href="#linear-gradient"/>
    <linearGradient id="linear-gradient-24" x1="-33.12" y1="64.71" x2="96.56" y2="159.74" gradientTransform="translate(163.78 47.27) rotate(76.72)" xlink:href="#linear-gradient"/>
    <linearGradient id="linear-gradient-25" x1="-30.88" y1="61.66" x2="98.79" y2="156.69" xlink:href="#linear-gradient"/>
  </defs>
  <g id="horizontal_-_symbol">
    <g>
      <polygon class="cls-9" points="109.86 94.39 112.33 98.67 81.56 116.44 49.55 97.96 49.55 61 50.87 60.24 81.56 42.52 112.33 60.28 109.86 64.57 81.56 48.24 55.82 63.1 54.5 63.86 54.5 95.1 81.56 110.72 109.86 94.39"/>
      <polygon class="cls-8" points="81.56 145.59 24.31 112.53 24.31 46.43 81.56 13.37 138.15 46.04 136.83 48.33 81.56 16.42 26.95 47.95 26.95 111.01 81.56 142.54 136.83 110.63 138.15 112.91 81.56 145.59"/>
      <rect class="cls-7" x="81.81" y="13.99" width="2.64" height="64.58" transform="translate(1.48 95.13) rotate(-60)"/>
      <polygon class="cls-6" points="55.82 63.1 54.5 63.86 54.5 65.38 49.55 62.52 24.97 48.33 26.29 46.05 50.87 60.24 55.82 63.1"/>
      <rect class="cls-3" x="52.28" y="65.14" width="2.64" height="64.58" transform="translate(-57.58 95.13) rotate(-60)"/>
      <polygon class="cls-4" points="82.88 155.26 80.24 155.26 80.24 112.82 136.83 80.15 138.15 82.43 82.88 114.34 82.88 155.26"/>
      <rect class="cls-2" x="50.71" y="63.86" width="2.64" height="78.54"/>
      <g>
        <circle class="cls-1" cx="111.1" cy="62.43" r="7.04"/>
        <circle class="cls-5" cx="81.56" cy="79.48" r="7.04"/>
        <circle class="cls-11" cx="81.56" cy="45.38" r="7.04"/>
        <circle class="cls-12" cx="81.56" cy="113.58" r="7.04"/>
        <circle class="cls-13" cx="52.03" cy="62.43" r="7.04"/>
        <circle class="cls-14" cx="111.1" cy="96.53" r="7.04" transform="translate(-8.38 182.48) rotate(-76.72)"/>
        <circle class="cls-16" cx="52.03" cy="96.53" r="7.04"/>
        <circle class="cls-22" cx="137.49" cy="111.77" r="3.63"/>
        <circle class="cls-23" cx="137.49" cy="81.29" r="3.63"/>
        <circle class="cls-24" cx="137.49" cy="47.19" r="3.63"/>
        <circle class="cls-25" cx="109.53" cy="30.97" r="3.63" transform="translate(-3.52 44.27) rotate(-22.5)"/>
        <circle class="cls-15" cx="81.56" cy="14.9" r="3.63"/>
        <circle class="cls-18" cx="55.16" cy="30.14" r="3.63" transform="translate(13.16 76.9) rotate(-76.72)"/>
        <circle class="cls-17" cx="25.63" cy="47.19" r="3.63"/>
        <circle class="cls-19" cx="25.63" cy="81.29" r="3.63"/>
        <circle class="cls-20" cx="25.63" cy="111.95" r="3.63"/>
        <circle class="cls-26" cx="52.03" cy="127.11" r="3.63" transform="translate(-83.63 148.54) rotate(-76.72)"/>
        <circle class="cls-21" cx="81.56" cy="144.06" r="3.63"/>
      </g>
    </g>
  </g>
  <g id="coffey.codes">
    <path class="cls-10" d="M179,85.27c0-5.81,1.42-10.32,4.26-13.54,2.84-3.22,6.75-4.83,11.74-4.83,4.25,0,7.72.95,10.42,2.86,2.7,1.9,4.3,5.27,4.8,10.09h-9.09c-.17-1.28-.59-2.43-1.27-3.45-.99-1.38-2.53-2.07-4.61-2.07-2.97,0-5.01,1.48-6.1,4.45-.58,1.58-.87,3.67-.87,6.29s.29,4.49.87,6.01c1.05,2.82,3.03,4.23,5.94,4.23,2.06,0,3.53-.56,4.4-1.68.87-1.12,1.39-2.57,1.58-4.35h9.06c-.21,2.69-1.18,5.24-2.92,7.64-2.78,3.87-6.89,5.8-12.33,5.8s-9.46-1.62-12.02-4.85c-2.57-3.23-3.85-7.43-3.85-12.59Z"/>
    <path class="cls-10" d="M216.26,84.64c0-4.88,1.43-9.1,4.3-12.67,2.87-3.57,7.22-5.36,13.06-5.36s10.14,1.79,12.99,5.36c2.85,3.57,4.28,7.8,4.28,12.67s-1.43,9.23-4.28,12.76c-2.85,3.53-7.18,5.3-12.99,5.3s-10.2-1.77-13.06-5.3c-2.87-3.53-4.3-7.79-4.3-12.76ZM225.54,84.64c0,3.4.7,6.03,2.09,7.88s3.38,2.77,5.96,2.77,4.56-.92,5.95-2.77,2.08-4.47,2.08-7.88-.69-6.02-2.08-7.86-3.37-2.76-5.95-2.76-4.57.92-5.96,2.76-2.09,4.46-2.09,7.86Z"/>
    <path class="cls-10" d="M255.41,74.25v-6.24h4.9v-2.17c0-3.62.61-6.11,1.82-7.48,1.27-2.03,4.35-3.04,9.23-3.04.56,0,1.07.02,1.52.05.45.03,1.08.08,1.86.14v7.23c-.5-.06-1.32-.11-2.48-.16h-.19c-1.08,0-1.82.27-2.23.8-.46.54-.68,1.13-.68,1.79v2.84h5.87v6.24h-5.87v27.28h-8.75v-27.28h-5Z"/>
    <path class="cls-10" d="M280.14,74.25v-6.24h4.9v-2.17c0-3.62.61-6.11,1.82-7.48,1.27-2.03,4.35-3.04,9.23-3.04.56,0,1.07.02,1.52.05.45.03,1.08.08,1.86.14v7.23c-.5-.06-1.32-.11-2.48-.16h-.19c-1.08,0-1.82.27-2.23.8-.46.54-.68,1.13-.68,1.79v2.84h5.87v6.24h-5.87v27.28h-8.75v-27.28h-5Z"/>
    <path class="cls-10" d="M304.27,84.95c0-5.86,1.48-10.35,4.45-13.47,2.97-3.12,6.82-4.69,11.56-4.69,2.81,0,5.35.53,7.6,1.58,2.25,1.06,4.12,2.72,5.59,5,1.32,2.01,2.18,4.34,2.58,6.98.19,1.3.28,3.1.28,5.4v1.3h-23.15c.12,3.36,1.19,5.71,3.2,7.06,1.22.84,2.69,1.26,4.41,1.26,1.82,0,3.3-.5,4.44-1.51.62-.55,1.17-1.3,1.65-2.27h9.03c-.23,2.01-1.27,4.05-3.13,6.11-2.9,3.29-6.95,4.94-12.17,4.94-4.3,0-8.1-1.39-11.39-4.16-3.29-2.77-4.94-7.28-4.94-13.53ZM313.4,81.23h13.75c-.14-2.35-.85-4.13-2.13-5.35s-2.85-1.82-4.73-1.82c-2.05,0-3.64.64-4.76,1.93-1.13,1.29-1.84,3.03-2.13,5.24Z"/>
    <path class="cls-10" d="M339.71,67.7h9.93l7.39,24.86,6.98-24.86h9.4l-11.61,33.27c-2.23,6.41-4,10.39-5.31,11.93-1.3,1.54-3.91,2.31-7.83,2.31-.79,0-1.43,0-1.91-.02-.48-.01-1.2-.05-2.16-.11v-7.23l1.13.06c.25.02.5.03.75.03.6,0,1.18-.04,1.74-.12.79-.1,1.45-.34,1.99-.71.52-.35,1-1.08,1.46-2.2.37-.95.56-1.58.56-1.89,0-.06-.01-.11-.03-.15l-12.48-35.19Z"/>
    <path class="cls-10" d="M376.91,96.9h0c0-2.55,2.07-4.62,4.62-4.62h.25c2.55,0,4.62,2.07,4.62,4.62h0c0,2.55-2.07,4.62-4.62,4.62h-.25c-2.55,0-4.62-2.07-4.62-4.62Z"/>
    <path class="cls-10" d="M394.46,85.27c0-5.81,1.42-10.32,4.26-13.54,2.84-3.22,6.75-4.83,11.74-4.83,4.25,0,7.72.95,10.42,2.86,2.7,1.9,4.3,5.27,4.8,10.09h-9.09c-.17-1.28-.59-2.43-1.27-3.45-.99-1.38-2.53-2.07-4.61-2.07-2.97,0-5.01,1.48-6.1,4.45-.58,1.58-.87,3.67-.87,6.29s.29,4.49.87,6.01c1.05,2.82,3.03,4.23,5.94,4.23,2.06,0,3.53-.56,4.4-1.68.87-1.12,1.39-2.57,1.58-4.35h9.06c-.21,2.69-1.18,5.24-2.92,7.64-2.78,3.87-6.89,5.8-12.33,5.8s-9.45-1.62-12.02-4.85c-2.57-3.23-3.85-7.43-3.85-12.59Z"/>
    <path class="cls-10" d="M431.71,84.64c0-4.88,1.43-9.1,4.3-12.67,2.87-3.57,7.22-5.36,13.06-5.36s10.14,1.79,12.99,5.36c2.85,3.57,4.28,7.8,4.28,12.67s-1.43,9.23-4.28,12.76c-2.85,3.53-7.18,5.3-12.99,5.3s-10.2-1.77-13.06-5.3c-2.87-3.53-4.3-7.79-4.3-12.76ZM440.99,84.64c0,3.4.7,6.03,2.09,7.88,1.39,1.85,3.38,2.77,5.96,2.77s4.56-.92,5.95-2.77c1.38-1.85,2.08-4.47,2.08-7.88s-.69-6.02-2.08-7.86c-1.38-1.84-3.37-2.76-5.95-2.76s-4.57.92-5.96,2.76c-1.39,1.84-2.09,4.46-2.09,7.86Z"/>
    <path class="cls-10" d="M472.81,85.5c0-5.78,1.32-10.32,3.97-13.64,2.65-3.31,6.19-4.97,10.62-4.97,2.05,0,3.88.45,5.47,1.35s2.89,2.15,3.89,3.74v-16.14h8.91v45.69h-8.54v-4.66c-1.26,2-2.71,3.45-4.32,4.36s-3.63,1.36-6.03,1.36c-3.94,0-7.25-1.6-9.94-4.79-2.69-3.19-4.04-7.29-4.04-12.29ZM481.87,84.85c0,3.13.62,5.63,1.85,7.51,1.23,1.88,3.1,2.81,5.61,2.81s4.42-.93,5.72-2.8c1.31-1.86,1.96-4.28,1.96-7.24,0-4.14-1.05-7.11-3.14-8.89-1.29-1.08-2.78-1.62-4.48-1.62-2.59,0-4.49.98-5.71,2.94-1.21,1.96-1.82,4.39-1.82,7.29Z"/>
    <path class="cls-10" d="M513.63,84.95c0-5.86,1.48-10.35,4.45-13.47,2.97-3.12,6.82-4.69,11.56-4.69,2.81,0,5.35.53,7.6,1.58,2.25,1.06,4.12,2.72,5.59,5,1.32,2.01,2.18,4.34,2.58,6.98.19,1.3.28,3.1.28,5.4v1.3h-23.15c.12,3.36,1.19,5.71,3.2,7.06,1.22.84,2.69,1.26,4.41,1.26,1.82,0,3.3-.5,4.44-1.51.62-.55,1.17-1.3,1.65-2.27h9.03c-.23,2.01-1.27,4.05-3.13,6.11-2.9,3.29-6.95,4.94-12.17,4.94-4.3,0-8.1-1.39-11.39-4.16-3.29-2.77-4.94-7.28-4.94-13.53ZM522.76,81.23h13.75c-.14-2.35-.85-4.13-2.13-5.35s-2.85-1.82-4.73-1.82c-2.05,0-3.64.64-4.76,1.93-1.13,1.29-1.84,3.03-2.13,5.24Z"/>
    <path class="cls-10" d="M551.68,90.73h8.97c.19,1.44.59,2.46,1.21,3.07,1.1,1.08,3.13,1.62,6.09,1.62,1.74,0,3.13-.24,4.15-.71s1.54-1.19,1.54-2.13-.41-1.6-1.21-2.08c-.83-.52-3.9-1.41-9.21-2.68-3.83-.92-6.53-2.07-8.1-3.46-1.57-1.36-2.36-3.33-2.36-5.89,0-3.21,1.22-5.96,3.67-8.27,2.44-2.3,5.88-3.46,10.32-3.46s7.66.84,10.31,2.53c2.66,1.69,4.18,4.6,4.58,8.74h-8.82c-.12-1.01-.45-1.81-.96-2.4-.98-1.07-2.64-1.6-4.98-1.6-1.93,0-3.3.27-4.12.81-.82.54-1.23,1.17-1.23,1.9,0,.91.46,1.57,1.37,1.98.87.48,3.94,1.3,9.22,2.46,3.48.81,6.1,2.03,7.85,3.67,1.73,1.66,2.6,3.73,2.6,6.22,0,3.42-1.25,6.22-3.74,8.39s-6.34,3.25-11.55,3.25-9.25-1.12-11.79-3.37-3.8-5.11-3.8-8.58Z"/>
  </g>
</svg>