<?xml version="1.0" encoding="UTF-8"?>
<svg id="Layer_2" data-name="Layer 2" xmlns="http://www.w3.org/2000/svg" xmlns:xlink="http://www.w3.org/1999/xlink" viewBox="0 0 1200 630">
  <defs>
    <style>
      .cls-1 {
        fill: url(#linear-gradient-15);
      }

      .cls-2 {
        fill: url(#linear-gradient-13);
      }

      .cls-3 {
        fill: url(#linear-gradient-2);
      }

      .cls-4 {
        fill: url(#linear-gradient-25);
      }

      .cls-5 {
        fill: url(#linear-gradient-10);
      }

      .cls-6 {
        fill: url(#linear-gradient-12);
      }

      .cls-7 {
        fill: #fff;
      }

      .cls-8 {
        fill: url(#linear-gradient-4);
      }

      .cls-9 {
        fill: url(#linear-gradient-3);
      }

      .cls-10 {
        fill: url(#linear-gradient-5);
      }

      .cls-11 {
        fill: url(#linear-gradient-22);
      }

      .cls-12 {
        fill: url(#linear-gradient-24);
      }

      .cls-13 {
        fill: #231f20;
      }

      .cls-14 {
        fill: url(#linear-gradient-8);
      }

      .cls-15 {
        fill: url(#linear-gradient-14);
      }

      .cls-16 {
        fill: url(#linear-gradient-20);
      }

      .cls-17 {
        fill: url(#linear-gradient-17);
      }

      .cls-18 {
        fill: url(#linear-gradient-7);
      }

      .cls-19 {
        fill: url(#linear-gradient-9);
      }

      .cls-20 {
        fill: url(#linear-gradient-11);
      }

      .cls-21 {
        fill: url(#linear-gradient-19);
      }

      .cls-22 {
        fill: url(#linear-gradient-6);
      }

      .cls-23 {
        fill: url(#linear-gradient-21);
      }

      .cls-24 {
        fill: url(#linear-gradient-16);
      }

      .cls-25 {
        fill: url(#linear-gradient);
      }

      .cls-26 {
        fill: url(#linear-gradient-23);
      }

      .cls-27 {
        fill: url(#linear-gradient-18);
      }
    </style>
    <linearGradient id="linear-gradient" x1="3.77" y1="508.64" x2="106.02" y2="583.57" gradientUnits="userSpaceOnUse">
      <stop offset="0" stop-color="#a2e2ef"/>
      <stop offset="1" stop-color="#32c0dc"/>
    </linearGradient>
    <linearGradient id="linear-gradient-2" x1="3.78" y1="508.61" x2="106.03" y2="583.55" xlink:href="#linear-gradient"/>
    <linearGradient id="linear-gradient-3" x1="16.71" y1="490.97" x2="118.96" y2="565.9" gradientTransform="translate(493.35 204.68) rotate(60)" xlink:href="#linear-gradient"/>
    <linearGradient id="linear-gradient-4" x1="1.4" y1="511.87" x2="103.64" y2="586.8" xlink:href="#linear-gradient"/>
    <linearGradient id="linear-gradient-5" x1="-10.65" y1="528.31" x2="91.6" y2="603.24" gradientTransform="translate(516.64 245.01) rotate(60)" xlink:href="#linear-gradient"/>
    <linearGradient id="linear-gradient-6" x1="-3.14" y1="518.06" x2="99.11" y2="592.99" xlink:href="#linear-gradient"/>
    <linearGradient id="linear-gradient-7" x1="-13.22" y1="531.82" x2="89.02" y2="606.75" xlink:href="#linear-gradient"/>
    <linearGradient id="linear-gradient-8" x1="18.35" y1="488.74" x2="120.6" y2="563.67" xlink:href="#linear-gradient"/>
    <linearGradient id="linear-gradient-9" x1="3.8" y1="508.59" x2="106.05" y2="583.52" xlink:href="#linear-gradient"/>
    <linearGradient id="linear-gradient-10" x1="16.62" y1="491.09" x2="118.87" y2="566.02" xlink:href="#linear-gradient"/>
    <linearGradient id="linear-gradient-11" x1="-9.02" y1="526.08" x2="93.23" y2="601.01" xlink:href="#linear-gradient"/>
    <linearGradient id="linear-gradient-12" x1="2.08" y1="510.94" x2="104.33" y2="585.87" xlink:href="#linear-gradient"/>
    <linearGradient id="linear-gradient-13" x1="5.53" y1="506.23" x2="107.78" y2="581.16" gradientTransform="translate(624.44 349.41) rotate(76.72)" xlink:href="#linear-gradient"/>
    <linearGradient id="linear-gradient-14" x1="-10.74" y1="528.44" x2="91.5" y2="603.37" xlink:href="#linear-gradient"/>
    <linearGradient id="linear-gradient-15" x1="7.07" y1="504.13" x2="109.32" y2="579.06" xlink:href="#linear-gradient"/>
    <linearGradient id="linear-gradient-16" x1="18.53" y1="488.49" x2="120.78" y2="563.42" xlink:href="#linear-gradient"/>
    <linearGradient id="linear-gradient-17" x1="31.35" y1="471" x2="133.6" y2="545.93" xlink:href="#linear-gradient"/>
    <linearGradient id="linear-gradient-18" x1="29.74" y1="473.19" x2="131.99" y2="548.12" xlink:href="#linear-gradient"/>
    <linearGradient id="linear-gradient-19" x1="28.08" y1="475.46" x2="130.33" y2="550.39" xlink:href="#linear-gradient"/>
    <linearGradient id="linear-gradient-20" x1="15.08" y1="493.2" x2="117.33" y2="568.13" gradientTransform="translate(539.52 352.01) rotate(76.72)" xlink:href="#linear-gradient"/>
    <linearGradient id="linear-gradient-21" x1=".53" y1="513.05" x2="102.78" y2="587.98" xlink:href="#linear-gradient"/>
    <linearGradient id="linear-gradient-22" x1="-12.29" y1="530.54" x2="89.96" y2="605.47" xlink:href="#linear-gradient"/>
    <linearGradient id="linear-gradient-23" x1="-23.82" y1="546.28" x2="78.43" y2="621.21" xlink:href="#linear-gradient"/>
    <linearGradient id="linear-gradient-24" x1="-22.24" y1="544.12" x2="80.01" y2="619.06" gradientTransform="translate(612.03 413.31) rotate(76.72)" xlink:href="#linear-gradient"/>
    <linearGradient id="linear-gradient-25" x1="-20.48" y1="541.72" x2="81.77" y2="616.65" xlink:href="#linear-gradient"/>
  </defs>
  <rect class="cls-13" x="0" y="1.53" width="1200" height="628.47"/>
  <g id="horizontal_-_symbol" data-name="horizontal - symbol">
    <g>
      <polygon class="cls-25" points="90.5 567.52 92.45 570.9 68.19 584.91 42.95 570.34 42.95 541.2 43.99 540.6 68.19 526.63 92.45 540.63 90.5 544.01 68.19 531.13 47.89 542.85 46.85 543.45 46.85 568.09 68.19 580.41 90.5 567.52"/>
      <polygon class="cls-3" points="68.19 607.9 23.04 581.83 23.04 529.71 68.19 503.64 112.81 529.41 111.77 531.21 68.19 506.05 25.12 530.91 25.12 580.63 68.19 605.49 111.77 580.33 112.81 582.13 68.19 607.9"/>
      <rect class="cls-9" x="68.38" y="504.13" width="2.08" height="50.92" transform="translate(-423.93 324.92) rotate(-60)"/>
      <polygon class="cls-8" points="47.89 542.85 46.85 543.45 46.85 544.65 42.95 542.4 23.56 531.21 24.6 529.41 43.99 540.6 47.89 542.85"/>
      <rect class="cls-10" x="45.09" y="544.47" width="2.08" height="50.92" transform="translate(-470.51 324.92) rotate(-60)"/>
      <polygon class="cls-22" points="69.23 615.53 67.14 615.53 67.14 582.06 111.77 556.3 112.81 558.1 69.23 583.26 69.23 615.53"/>
      <rect class="cls-18" x="43.86" y="543.45" width="2.08" height="61.93"/>
      <g>
        <circle class="cls-14" cx="91.47" cy="542.33" r="5.55"/>
        <circle class="cls-19" cx="68.19" cy="555.77" r="5.55"/>
        <circle class="cls-5" cx="68.19" cy="528.88" r="5.55"/>
        <circle class="cls-20" cx="68.19" cy="582.66" r="5.55"/>
        <circle class="cls-6" cx="44.9" cy="542.33" r="5.55"/>
        <circle class="cls-2" cx="91.47" cy="569.21" r="5.55" transform="translate(-483.53 527.46) rotate(-76.72)"/>
        <circle class="cls-15" cx="44.9" cy="569.21" r="5.55"/>
        <circle class="cls-1" cx="112.29" cy="581.23" r="2.86"/>
        <circle class="cls-24" cx="112.29" cy="557.2" r="2.86"/>
        <circle class="cls-17" cx="112.29" cy="530.31" r="2.86"/>
        <circle class="cls-27" cx="90.24" cy="517.52" r="2.86"/>
        <circle class="cls-21" cx="68.19" cy="504.85" r="2.86"/>
        <circle class="cls-16" cx="47.37" cy="516.86" r="2.86" transform="translate(-466.55 444.21) rotate(-76.72)"/>
        <circle class="cls-23" cx="24.08" cy="530.31" r="2.86"/>
        <circle class="cls-11" cx="24.08" cy="557.2" r="2.86"/>
        <circle class="cls-26" cx="24.08" cy="581.38" r="2.86"/>
        <circle class="cls-12" cx="44.9" cy="593.32" r="2.86" transform="translate(-542.87 500.7) rotate(-76.72)"/>
        <circle class="cls-4" cx="68.19" cy="606.69" r="2.86"/>
      </g>
    </g>
  </g>
  <g id="coffey.codes">
    <path class="cls-7" d="M131.02,560.33c0-4.58,1.12-8.14,3.36-10.68,2.24-2.54,5.32-3.81,9.26-3.81,3.35,0,6.09.75,8.22,2.25,2.13,1.5,3.39,4.15,3.79,7.95h-7.17c-.13-1.01-.46-1.91-1-2.72-.78-1.09-1.99-1.63-3.64-1.63-2.34,0-3.95,1.17-4.81,3.51-.46,1.24-.68,2.9-.68,4.96s.23,3.54.68,4.74c.83,2.23,2.39,3.34,4.69,3.34,1.63,0,2.78-.44,3.47-1.32.68-.88,1.1-2.02,1.25-3.43h7.15c-.16,2.12-.93,4.13-2.3,6.02-2.19,3.05-5.43,4.58-9.73,4.58s-7.46-1.27-9.48-3.82c-2.03-2.55-3.04-5.86-3.04-9.93Z"/>
    <path class="cls-7" d="M160.39,559.84c0-3.84,1.13-7.17,3.39-9.99,2.26-2.82,5.7-4.23,10.3-4.23s8,1.41,10.25,4.23c2.25,2.82,3.37,6.15,3.37,9.99s-1.12,7.28-3.37,10.06c-2.25,2.79-5.66,4.18-10.25,4.18s-8.04-1.39-10.3-4.18c-2.26-2.79-3.39-6.14-3.39-10.06ZM167.71,559.84c0,2.68.55,4.75,1.65,6.21,1.1,1.46,2.67,2.18,4.7,2.18s3.6-.73,4.69-2.18c1.09-1.46,1.64-3.53,1.64-6.21s-.55-4.75-1.64-6.2-2.65-2.17-4.69-2.17-3.6.72-4.7,2.17c-1.1,1.45-1.65,3.51-1.65,6.2Z"/>
    <path class="cls-7" d="M191.27,551.64v-4.92h3.87v-1.71c0-2.85.48-4.82,1.43-5.9,1-1.6,3.43-2.4,7.28-2.4.44,0,.84.01,1.2.04.36.02.85.06,1.47.11v5.7c-.39-.05-1.04-.09-1.96-.12h-.15c-.85,0-1.44.21-1.76.63-.36.42-.54.89-.54,1.41v2.24h4.63v4.92h-4.63v21.51h-6.9v-21.51h-3.94Z"/>
    <path class="cls-7" d="M210.77,551.64v-4.92h3.87v-1.71c0-2.85.48-4.82,1.43-5.9,1-1.6,3.43-2.4,7.28-2.4.44,0,.84.01,1.2.04.36.02.85.06,1.47.11v5.7c-.39-.05-1.04-.09-1.96-.12h-.15c-.85,0-1.44.21-1.76.63-.36.42-.54.89-.54,1.41v2.24h4.63v4.92h-4.63v21.51h-6.9v-21.51h-3.94Z"/>
    <path class="cls-7" d="M229.79,560.09c0-4.62,1.17-8.16,3.51-10.62,2.34-2.46,5.38-3.7,9.12-3.7,2.22,0,4.22.42,6,1.25,1.78.83,3.25,2.15,4.41,3.94,1.04,1.58,1.72,3.42,2.03,5.51.15,1.03.22,2.45.22,4.26v1.03h-18.26c.1,2.65.94,4.5,2.52,5.57.96.66,2.12.99,3.48.99,1.44,0,2.6-.4,3.5-1.19.49-.43.92-1.03,1.3-1.79h7.12c-.18,1.58-1,3.19-2.47,4.82-2.28,2.59-5.48,3.89-9.59,3.89-3.39,0-6.39-1.09-8.98-3.28-2.59-2.19-3.89-5.74-3.89-10.67ZM236.99,557.15h10.84c-.11-1.85-.67-3.26-1.68-4.22-1-.96-2.25-1.44-3.73-1.44-1.62,0-2.87.51-3.76,1.52-.89,1.02-1.45,2.39-1.68,4.13Z"/>
    <path class="cls-7" d="M257.74,546.48h7.83l5.82,19.6,5.51-19.6h7.42l-9.15,26.24c-1.76,5.06-3.16,8.19-4.19,9.41-1.03,1.22-3.09,1.82-6.17,1.82-.63,0-1.13,0-1.51-.01-.38,0-.95-.04-1.71-.09v-5.7l.89.05c.2.02.4.02.59.02.47,0,.93-.03,1.37-.1.62-.08,1.14-.27,1.57-.56.41-.28.79-.85,1.15-1.73.29-.75.44-1.24.44-1.49,0-.05,0-.09-.02-.12l-9.84-27.74Z"/>
    <path class="cls-7" d="M287.07,569.51h0c0-2.01,1.63-3.65,3.65-3.65h.2c2.01,0,3.65,1.63,3.65,3.65h0c0,2.01-1.63,3.65-3.65,3.65h-.2c-2.01,0-3.65-1.63-3.65-3.65Z"/>
    <path class="cls-7" d="M300.9,560.33c0-4.58,1.12-8.14,3.36-10.68,2.24-2.54,5.32-3.81,9.26-3.81,3.35,0,6.09.75,8.22,2.25,2.13,1.5,3.39,4.15,3.79,7.95h-7.17c-.13-1.01-.46-1.91-1-2.72-.78-1.09-1.99-1.63-3.64-1.63-2.34,0-3.95,1.17-4.81,3.51-.46,1.24-.68,2.9-.68,4.96s.23,3.54.68,4.74c.83,2.23,2.39,3.34,4.69,3.34,1.63,0,2.78-.44,3.47-1.32.68-.88,1.1-2.02,1.25-3.43h7.15c-.16,2.12-.93,4.13-2.3,6.02-2.19,3.05-5.43,4.58-9.73,4.58s-7.46-1.27-9.48-3.82c-2.03-2.55-3.04-5.86-3.04-9.93Z"/>
    <path class="cls-7" d="M330.28,559.84c0-3.84,1.13-7.17,3.39-9.99,2.26-2.82,5.7-4.23,10.3-4.23s8,1.41,10.25,4.23c2.25,2.82,3.37,6.15,3.37,9.99s-1.12,7.28-3.37,10.06c-2.25,2.79-5.67,4.18-10.25,4.18s-8.04-1.39-10.3-4.18c-2.26-2.79-3.39-6.14-3.39-10.06ZM337.6,559.84c0,2.68.55,4.75,1.65,6.21,1.1,1.46,2.67,2.18,4.7,2.18s3.6-.73,4.69-2.18c1.09-1.46,1.64-3.53,1.64-6.21s-.55-4.75-1.64-6.2c-1.09-1.45-2.65-2.17-4.69-2.17s-3.6.72-4.7,2.17c-1.1,1.45-1.65,3.51-1.65,6.2Z"/>
    <path class="cls-7" d="M362.68,560.52c0-4.56,1.04-8.14,3.13-10.75,2.09-2.61,4.88-3.92,8.38-3.92,1.62,0,3.06.35,4.32,1.06,1.26.71,2.28,1.69,3.07,2.95v-12.73h7.02v36.03h-6.73v-3.68c-1,1.58-2.13,2.72-3.41,3.44-1.28.72-2.86,1.07-4.76,1.07-3.11,0-5.72-1.26-7.84-3.78-2.12-2.52-3.18-5.75-3.18-9.69ZM369.83,560c0,2.47.49,4.44,1.46,5.92.97,1.48,2.45,2.22,4.43,2.22s3.48-.74,4.51-2.21c1.03-1.47,1.55-3.37,1.55-5.71,0-3.27-.83-5.6-2.48-7.01-1.01-.85-2.19-1.27-3.53-1.27-2.04,0-3.54.77-4.5,2.32-.96,1.54-1.43,3.46-1.43,5.75Z"/>
    <path class="cls-7" d="M394.87,560.09c0-4.62,1.17-8.16,3.51-10.62,2.34-2.46,5.38-3.7,9.12-3.7,2.22,0,4.22.42,6,1.25,1.78.83,3.25,2.15,4.41,3.94,1.04,1.58,1.72,3.42,2.03,5.51.15,1.03.22,2.45.22,4.26v1.03h-18.26c.1,2.65.94,4.5,2.52,5.57.96.66,2.12.99,3.48.99,1.44,0,2.6-.4,3.5-1.19.49-.43.92-1.03,1.3-1.79h7.12c-.18,1.58-1,3.19-2.47,4.82-2.28,2.59-5.48,3.89-9.59,3.89-3.39,0-6.39-1.09-8.98-3.28-2.59-2.19-3.89-5.74-3.89-10.67ZM402.07,557.15h10.84c-.11-1.85-.67-3.26-1.68-4.22-1-.96-2.25-1.44-3.73-1.44-1.62,0-2.87.51-3.76,1.52-.89,1.02-1.45,2.39-1.68,4.13Z"/>
    <path class="cls-7" d="M424.87,564.64h7.07c.15,1.13.47,1.94.96,2.42.87.85,2.47,1.28,4.8,1.28,1.37,0,2.47-.19,3.28-.56.81-.37,1.21-.93,1.21-1.68s-.32-1.26-.96-1.64c-.65-.41-3.07-1.12-7.27-2.12-3.02-.73-5.15-1.64-6.39-2.73-1.24-1.07-1.86-2.62-1.86-4.65,0-2.53.96-4.7,2.89-6.52,1.93-1.82,4.64-2.73,8.13-2.73s6.04.66,8.13,1.99c2.1,1.33,3.3,3.63,3.61,6.89h-6.96c-.1-.8-.35-1.43-.76-1.89-.77-.84-2.08-1.26-3.93-1.26-1.52,0-2.6.21-3.25.64-.65.43-.97.92-.97,1.5,0,.72.36,1.24,1.08,1.56.69.38,3.11,1.02,7.27,1.94,2.75.64,4.81,1.6,6.19,2.9,1.37,1.31,2.05,2.94,2.05,4.91,0,2.7-.98,4.9-2.95,6.61-1.96,1.71-5,2.56-9.11,2.56s-7.3-.89-9.29-2.66c-2-1.77-3-4.03-3-6.77Z"/>
  </g>
</svg>