<?xml version="1.0" encoding="UTF-8"?>
<svg id="Layer_1" data-name="Layer 1" xmlns="http://www.w3.org/2000/svg" viewBox="0 0 500 500">
  <defs>
    <style>
      .cls-1 {
        fill: #d6e4f0;
      }

      .cls-2 {
        letter-spacing: -.04em;
      }

      .cls-3 {
        fill: #eff6f9;
      }

      .cls-4 {
        font-family: Inter-Bold, Inter;
        font-size: 77.82px;
        font-variation-settings: 'wght' 700, 'slnt' 0;
        font-weight: 700;
      }

      .cls-4, .cls-5 {
        fill: #5281af;
      }

      .cls-6 {
        letter-spacing: -.04em;
      }

      .cls-7 {
        letter-spacing: -.03em;
      }

      .cls-8 {
        fill: #b8cfe2;
      }

      .cls-9 {
        fill: #688fb1;
      }

      .cls-10 {
        letter-spacing: -.04em;
      }

      .cls-11 {
        letter-spacing: -.04em;
      }

      .cls-12 {
        letter-spacing: -.04em;
      }

      .cls-13 {
        fill: #5484b2;
      }

      .cls-14 {
        letter-spacing: -.04em;
      }

      .cls-15 {
        letter-spacing: -.04em;
      }

      .cls-16 {
        letter-spacing: -.04em;
      }
    </style>
  </defs>
  <g>
    <path class="cls-5" d="M226.06,91.91v-9.26s0-1.86,0-1.86c.88-1.1,1.07-2.77,0-3.68l-1.03-.93c.08-.43.23-1,.23-1.46,1.52-.36,3,.06,4.27.8l-.66,21.7c-.03,1,1.07,1.87,1.88,2.06l.28,22.84c2.77.03,3.88-2.1,3.92-4.6l1.43-32.91c.03-1.51.14-1.92,1.23-2.15.42-.09,1.43.19,1.38,1.22-1.03,22.92-1.1,3.75-.73,26.68.08,4.68.05,3.79,1.78,8.56,2.72-2.16,2.14-4.45,2.07-7.39-.03-1.42,3.69-1.28,3.85-.16.21,1.44.24,2.81.11,4.96,5.04.37,11.89,4.03,11.84,9.81l-.42,51.3,31.34-14.43c12.64-5.82,26.1-5.85,37.84,2.73l26.11-9.06c21.8-7.56,43.9-11.71,67.25-12.02,14.27-.18,28.89,5.32,37.5,16.77,11.92,15.86,9.67,37.36-1.78,53.03-8.95,12.25-21,20.62-34.79,27.21-27.62,13.2-55.5,24.34-84.96,33.12-29.3,8.73-57.96,15.54-87.73,22.38l-102.83,23.61-54.41,11.19c-9.02,1.85-22.05,3.21-28.94-2.28-.26,4.06,1.2,8.3-.16,12.26-.8,2.34-7.66,4.02-8.85,1.84-2.14-3.93-.51-9.18-.92-13.76l-14.68,2.59c-1.38.24-2.43-.36-2.79-1.11-.42-.86-.02-2.01.87-2.53l14.26-8.31c.82-.48,1.92-.26,2.61.06,2.35,1.11,2.08-2.44,3.05-3.01l17.46-10.17,11.81-4.06c1.35.18,1.61,1.41,4.02,2.59l-.2-10.03-.16-1.93,21.25-10.96c3.8-1.96,7.22-4.56,11.45-5.51-.36-.72-.64-.94-.87-1.18l-11.24,4.62c-.56-.96.23-1.54.88-1.44l10.28-4.95,3.48,2.31,60.84-27.15.17,1.89c-1.05.54-2.29,1.75-1.33,3.05l35.16-15.21c-4.21-1.29-7.41,1.08-10.69,2.34-.52-.99-.78-1.76-.73-2.28,3.93-1.78,9.67-2.12,11.87-6.18.38-.7.3-1.66-.29-2.39,1.47-.49,3.69-3.49,2.67-4.95-.32-.46-1.43.11-1.61.41-.36.59-2.29,1.01-2.08-.99,4.05.33,7.08-1.31,7.88-5.19.42-1.63,2.5-.62,1.68.84-6.44,9.89-8.04,22.28-3.73,33,3.06-.79-.34-4.44.63-6.45.4-.82,2.06-1.03,2.99-2.22-1.3-.24-2.77-.16-3.73-.78-.58-.37.07-1.7.49-2.3,1.94-.19,3.84-.71,5.13-2.61-2.27-.63-3.67.42-4.9,1.45-1.05-1-.95-2.67-.58-3.9l18.44-7.2c.08-.7.03-1.35-.07-1.6l-18.55,7.05c-.2-1.91,2.17-2.94,4.27-3.78l39.42-15.79c.75-.3,1.32-1.47,1.51-2.02.22-.64-.04-1.55-.73-2.1.21-.45.48-1.57.93-1.84,2.65-1.52,1.97-5.24,5.03-8.01l-2.22,12.23.02,1.9-1.34,3.27c-.96,2.35-.76,4.85-1.11,7.34-.84,5.94-1.1,12.7,3.51,18.23.26-5.31-1.77-9.45-2.48-15.19l75.52-27.46-.42-2.02c0-.61-.9-.61-.9,0v1.35s-5.54.93-5.54.93c-.83.14-1.24.63-1.87.94-4.33,2.13-9.08,3.8-13.81,4.67l-2.31-.13c-1.18-.07-1.08,1.3-1.57,1.8-1.28,1.32-4.44,1.85-6.27,1.97-1.53.1-2.89.61-3.73,1.9-1.1.26-2.27,1.01-3.47.93-.9-.06-1.45.75-2.02.95l-10.88,3.81c-.73.26-1.54.11-2.15.75-.85.89-2.38.76-3.29,1.2-1.47-.02-3.15-.07-4.18-1.51l31.89-12.45c.46.09,1.03-.15,1.44-.3l19.67-7.01c3.23-1.15,6.88-.87,9.07-3.63-1.15-.55-2.12-.39-2.82-.16.06-1.93.75-3.72,1.76-5l1.99-2.56-.07-1.92.57-1.75c.17-.53-.54-1.21-1.34-1.15l.03-2.66c2.34-.85,4.82-1.57,4.44-4.46-.13-.95-1.49-1.48-2.44-1.52l4.45-2.1c.69-.33,1.64-.08,2.63.05l-4.12,11.41c-1.94,9.3-4.1,19.25,1.84,28.11-1.93-16.9.87-32.87,8.72-47.1.97.31,1.3,1.94.86,2.9-.29.63-1.7,1.18-.83,3.09l31.24-9.12c-2.12-2.36-4.65-.1-6.29-.74-.2-.39-.18-.93,0-1.35,2.32-1.32,5.73-.31,8.57-3.05-7.93.19-15.64,2.35-23.56,4.44-1.02.27-1.32-.75-1.72-.9l25.85-6.33c1.66-.4,3.05-.85,2.75-2.61l-29.99,5.64c8.64-4.51,16.71-4.63,24.4-6.61,3.41-.87,7.16-.52,10.42-2.61-3.88-1.19-7.03.54-10.24.83-9.7.88-18.76,3.98-28.58,6.18-15.44,3.47-29.53,9.09-43.64,14.84l-27.89,11.38-7.04,2.48-10.25,4.5-15.65,6.64-.17-1.36,22.26-10.66c1.38-.66,2.81-1.07,3.9-2.53-2.24-1.11-3.06.5-4.1.98l-46.04,20.89-.21-1.61,21.89-10.11,28.4-14.06c2.2-1.09,4.8-1.33,6.59-3.54-3.19-.93-4.81,1.46-6.72,2.29l-13.68,5.97.22-1.91,28.2-13.14c3.27-1.53,7.38-.8,10.51-3.22-3.98-1.11-7.3.56-10.39,1.47l-9.44,2.81c1.84-2.33,4.38-2.88,6.64-3.7l6.6-2.38c-3.31-1.54-5.39.64-7.56,1.23-7.66,2.09-14.38,6.07-21.92,9.62-10.45,4.92-21.26,9.21-30.79,14.83.06.51.47.66.61.59,2.19-.7,1.89,1.96,0,1.4-.85,1.6-2.44-.12-.65-.8.02-.2-.16-.56-.42-.65-2.39-.07-4.07,1.83-5.95,2.67l-23.81,10.66-.17-1.46,10.32-6.95c3.14-1.17,6.07-2.78,9.12-4.45l-9.26,1.54-.03-.87c3.02-1.04,5.71-2.27,8.36-4.62l-8.35,2.67c-.43.32-2.06-.25-1.85-.73.55-1.26,2.14-1.54,2.79-1.89l8.45-4.48c-4.17-1-6.69,1.97-9.7,3.18-2.82,1.13-5.47,3.23-9.28,2.71l15.08-8.9,6.33-3.21c-2.58-1.14-4.72,1.27-6.34,1.88l-11.57,4.42c2.53-4.21,6.58-4.3,9.62-6.69,1.67-1.31,4.5-1.33,5.92-3.7-3.01-.42-4.72,1.6-6.52,2.41l-8.47,3.81c-.19-.51-.22-1.09-.22-1.36l9.5-5.8,7.37-4.63c-3.25.35-6.1,1.61-8.01,3.56-.47-.31-1.73-.49-2.16-.12l-.18-1.78,15-8.53c-.07-.16-.16-.31-.48-.52l-14.44,6.12c.2-.38.19-1.01.14-1.56l5.4-3.55,6.79-3.76c-3.16-.17-5.79.78-7.47,2.46-.81.16-1.82.36-2.8-.7l5.49-3.89c2.05-1.45,4.77-1.84,6.45-4.24-3.25.09-5.3,2.06-7.49,3.16l-21.1,10.68,4.5-4,18.51-10.96c1.88-1.11,4.12-1.56,5.7-3.55-3.21-.75-4.9,1.41-6.87,2.39l-7.85,3.9-.27-1.41,5.6-4.2,9.27-5.13c-4.35.27-10.1,2.4-10.26,4.54-1.11-.13-2.67.06-3.66.67l-.11-1.3,5.71-4.16c2.47-1.8,5.77-2.22,8.29-5.38-3.41.75-6.27,2.87-9.39,4.26l-6.38,2.84v-1.09c.81-.81,1.81-1.99,2.77-2.59l7.37-4.58,7.28-2.81c-3.08-2.1-5.32,1.09-7.29,1.55-3.38.8-5.61,2.89-8.35,4.58l-10.14,6.28c-.83.52-.82,1.3.39,1.69-.35.19-.52.36-.76.64l-2.94-1.33c8.61-8.21,20.94-16.32,32.24-21.27-7.41-.19-13.23,4.05-18.38,8.23-.5-.58-.84-1.09-1.5-1.28l1.42-24.23c.04-1.27.77-2.37.69-3.6l-.3-4.48c1.01-.46,1.49-1.65,1.22-2.82l.03-.88ZM415.56,146.88c-4.26-1.18-7.47,1.09-10.73,3.81-11.47,9.57-18.54,25.82-13.48,40.92.99-23.89,2.52-32.97,24.21-44.73ZM424.56,149.5c-4.37-2.14-7.79-.17-10.84,1.09,4.58-.3,7.58-.03,10.84-1.09ZM420.19,152.95c-4.87-1.46-9.02-.31-13.28,1.55,4.84.3,8.62-.53,13.28-1.55ZM412.14,157.24c-3.58-.56-6.97-.25-9.84,1.76,3.58.45,6.55.11,9.84-1.76ZM406.65,162.27c-3.04-.86-6.25-.73-8.24,2.11,2.91.05,5.11-.43,8.24-2.11ZM314.83,163.94c0-.57-.46-1.03-1.03-1.03s-1.03.46-1.03,1.03.46,1.03,1.03,1.03,1.03-.46,1.03-1.03ZM357.47,177.65c9.72-4.11,18.84-6.68,28.78-8.68,1.42-.29,2.93-.67,3.28-2.42-10.59,1.82-20.38,4.24-30.42,7.63-1.37.46-2.28,2.2-1.64,3.47ZM400.24,167.96c.52-.48-.72-1.75-1.78-.99-.49.35-1.16.37-1.64,2.08.64.18,1.84.39,3.42-1.09ZM235.75,167.63l-.46.46.46.46.46-.46-.46-.46ZM305.95,167.63l-.46.46.46.46.46-.46-.46-.46ZM233.91,168.55l-.46.46.46.46.46-.46-.46-.46ZM292.46,172.51c.08.39.78,1.06,1.54.74l10.64-4.48c-4.54.58-8.55,1.78-12.18,3.73ZM387.23,173.02c.71-.22.74-1.32.38-1.81l-31.19,9.53-.03,1.78,30.84-9.49ZM383.64,178.95c2.01-.65,3.42-1.32,3.99-2.92l-31.88,10.69c-.17.38-.38.95-.25,1.28l28.15-9.05ZM354.46,193.16c11.63-2.33,21.11-6.93,31.5-11.23-10.79,2.5-21.82,5.89-31.5,11.23ZM376.72,189.8c0-.57-.46-1.03-1.03-1.03s-1.03.46-1.03,1.03.46,1.03,1.03,1.03,1.03-.46,1.03-1.03ZM355.43,197.66c6.62-.06,11.03-3.2,15.67-5.93l-15.67,5.93ZM318.54,216.8c-4.39.09-8.07,1.81-11.5,4.23,4.43-.15,7.82-1.59,11.5-4.23ZM264.99,219.43l-9.77,4.1.87.75c10.34-1.75,11.71-6.03,8.9-4.85ZM306,222.39c.46-.67.25-1.06-.17-1.48l-33.66,12.55c.4.86,1.22.89,1.66.79l32.17-11.87ZM254.57,224.35c-4.12.34-6.83,1.17-9.65,3.71,4.04.7,7.01-1.82,9.65-3.71ZM264.51,226.72c2.08-1.09.54-2.81-.97-1.55l-33.97,13.67.79,1.18,34.14-13.29ZM265.81,231.81c.63-.77,0-1.4-.56-1.46l-22.62,8.6c.25.33.54.73.61.93l22.56-8.08ZM259.47,238.98c-8.89,1.37-16.5,5.16-24.26,8.96,8.43-2.3,16.31-4.46,24.26-8.96ZM241.84,241.18c1.11-.37.68-1.71.02-1.69l-12.14,4.22.12,1.47,12-4ZM217.34,245.33c1.18-.45.34-1.99-.17-1.77l-15.21,6.56.63.81,14.75-5.6ZM217.96,249.98c1.78-.86.16-3.09-1.23-1.53-1.05.41-1.92.92-2.28,1.38-.62.77.25,1.26,1.03,1l2.49-.86ZM233.91,247.99l-.46.46.46.46.46-.46-.46-.46ZM198.09,251.15c-1.29,1.74.93,1.96,1.58,1.42.39-.32,1.49-.97,1.3-1.43-.2-.5-2.29-.8-2.88,0ZM212.71,251.86c.4-.46.32-.97-.15-1.35l-18.94,7.87.67.89,18.42-7.42ZM168.67,264.01c.34.65.9.75,1.44.51l24.52-10.55c-.49-.24-1.09-.31-1.6-.85l-24.36,10.89ZM180.5,255.74c.21-.77.05-1.2-.31-1.67l-43.97,19.74c.11.31.43.76.78,1.08l43.5-19.16ZM192.41,260.21c.41-.58.26-1.01-.18-1.4l-16.14,6.99.69.95,15.63-6.54ZM164.39,267.52c1.78-.81.21-3.06-1.13-1.52l-1.87.92c-.37.18.03,1.32.48,1.39.4.06,1.12-.14,2.52-.78ZM174.87,267.45c.57-.5.15-1.04-.19-1.29l-43.76,18.3c.29.17.54.48.64.86l43.31-17.88ZM159.58,268.36c-2.62-.26-4.24.74-5.68,2.43,2.27.31,5.01-.8,5.68-2.43ZM152.38,272.55c1.12-.89.28-2.08-1.02-1.48l-15.33,7.15-.46.97,16.81-6.65ZM134.41,279.74l-6.94.71c1.94-2.56,4.5-2.47,7.28-4.36-3.82-.93-7.4,1.98-8.41,6.23-1.87,1.11-4.62.32-5.41,2.88-.07-.18.05.16.36.85l13.12-6.31ZM103.17,290.2c6.04-3.36,12.11-4.53,16.88-9.1-9.81,3.19-17.99,8.38-26.56,13.5,4.19.72,6.6-2.68,9.69-4.4ZM126.95,285.31c-1.4,1.8.96,1.98,1.58,1.45.37-.32,1.49-.97,1.32-1.43-.19-.53-2.29-.81-2.9-.02ZM119.44,286.95c.42-.57.21-1.07-.25-1.47l-23.7,11.42c.22.38.48.72.86,1.08l23.09-11.02ZM124.46,294.22l-.99-4.85c-.16-.8,1.56-1.84,3.01-1.78-.64-1.45-2.1-1.12-3.23-.73-2.6.88-1.34,6.21.74,8.23l.48-.86ZM118.45,290.48l-.46.46.46.46.46-.46-.46-.46ZM115.34,293c1.25-.41,1.86-1.09,1.04-1.9l-20.74,9.7.79,1.06,18.91-8.86ZM124.92,295.12l-.44.45c-.15.49-.27,1.62.36,2.25.27.27,1,.36,1.43-.39.19-.33.06-1-.38-1.4l-.97-.9ZM54.58,344.33c.86-4.98,1.35-9.04-.33-14.02-1.44,4.79-1.8,9.55.33,14.02Z"/>
    <path class="cls-13" d="M80.14,280.38c-1.83,1.78-4.36,3.13-4.77,6.34,2.85-1.91,5.87,1.27,3.82,3.5-1.8.93-2.3,1.67-2.88,2.89-2.7.69-5.35,1.9-7.31,5.49,2.8-.72,5.9-2.66,7.31-5.49,4.19-1.07,7.44-4.35,11.15-6.23l1.02.93-13.9,10.06c-1.21.58-3.41,1.08-3.69,2.74l-.96.99c-.65-.41-3,.87-2.48,1.47.88,1.01,2.41-.62,2.48-1.47l.96-.99c1.79.08,3.46-.91,3.69-2.74.75-.02,2.36.02,3.09.17-1.03.71-14.71,11.15-15.43,11.09-.5.28-.19,1.67-.29,2.31-.25.31-6.83,4.03-6.53,4.58-2.12.64-3.28,2.65-2.99,4.75-.69-.32-1.79-.54-2.61-.06,2.75-2.86,2.08-30.09,2.39-34.05,1.69-3.29,5.65-5.03,9.19-4.38l.35,25.83c2.08-3.39,13.68-27.69,17.31-29.07l1.08,1.36ZM56.86,286.15c1.03-3.28-2.44-1.99-2.43.13,0,0,0,23.96,0,23.96.28-.41.73-.83,1.2-.81l1.23-23.29ZM75.07,289.59c.66-1.18,1.47-.87,1.85-1.05,1.02-1.04-1.68-1.94-2.23-.37-1.43.34-.91,1.95.38,1.42ZM55.06,314.88c.13-1.24.25-2.33-.09-3.99-2.06.55-2.81,5.24.09,3.99Z"/>
    <path class="cls-9" d="M202.17,208.6c-8.3,5.43-53.69,27.27-59.25,33.81-1.57-.16-3.11.31-3.7,1.89-3.09,1.87-7.5,1.95-9.24,5.54-3.13-.34-12.21,6.52-15.04,7.7-3.01,1.75-3.97,4.22-5.61,5.5-7.23,5.05-22.3,12.52-29.2,17.34l-1.08-1.36c34.3-23.55,85.89-52.79,122.62-72.72-.96.78-.68,2.18.5,2.3Z"/>
    <path class="cls-9" d="M141.09,245.25l-14.78,7.39c1.41-.52,3-1.41,3.67-2.8,2.3.01,4.58-1.71,5.54-3.76,1.27-.4,2.6-1.11,3.7-1.78.5-.15,2.06-.04,1.87.95Z"/>
    <path class="cls-9" d="M151.43,238.81c-.58,1.74-11.79,8.62-8.51,3.61,1.83.19,3.52-.99,3.59-2.85,1.63.07,3.23-.32,4.92-.76Z"/>
    <path class="cls-3" d="M392.36,149.39l-.17,1.78c-7.69,1.97-15.75,2.1-24.4,6.61l29.99-5.64c.31,1.76-1.09,2.21-2.75,2.61l-25.85,6.33-2.74-1.03c-1.78,1.33-3.45,2.91-4.61,4.8-9.03,13.54-11.39,31.03-9.65,48.06-9.62-14.93.65-42.49,12.04-54.34-2.84-1.03-4.13,1.39-5.76,1.55-3.36.32-7.09-.07-10.12,3.46l9.97-2.33c-.22,3.5-4.24,6-5.62,9.16-3.31-.02-7.46.51-9.87,3.52,3.9-.1,6.07-2.19,8.98-1.52l.02.92c-6.23,3.01-40.51,15.41-47.6,18.36,1.8,2.52,3.56-.36,5.04-.84,11.97-4.33,24.27-7.41,35.01-13.03,1.78-.61,3.64-1.03,5.54-.88.39,2.89-2.09,3.62-4.44,4.46l-41.7,15.05-.02,1.55c8.52-2.99,33.35-11.8,41.69-13.93,2.03,0,1.13,1.85.77,2.9-25.31,8.01-50.25,17.11-74.64,27.41l2.22-12.23c-3.05,2.77-2.38,6.5-5.03,8.01-10.58,4.47-21.84,7.24-31.85,13.8l30.92-11.96c1.5,1.25.64,3.23-.78,4.12,0,0-39.42,15.79-39.42,15.79-3.12,1.06-4.97,2.58-4.09,5.53-.37,1.22-.47,2.89.57,3.9-1.36,4.28-1.58,3.53,3.01,4.23-.93,1.19-2.6,1.4-2.99,2.22-.97,2.01,2.43,5.66-.63,6.45-4.32-10.72-2.71-23.11,3.73-33,.83-1.46-1.26-2.48-1.68-.84-.8,3.88-3.83,5.52-7.88,5.19-.21,2,1.73,1.58,2.08.99.18-.3,1.29-.87,1.61-.41,1.29,6.36-7.62,4.46-10.2,8.91l7.83-1.58c-2.21,4.06-7.94,4.4-11.87,6.18-14.97,6.87-67.51,30.27-83.41,37.37l-3.48-2.31-10.28,4.95c.02-1.52.84-2.61,1.82-3.68,3.46-.93,6.13-3.3,8.71-5.59-.86-.3-.63-1.04-.67-1.55,1.46-.74,2.68-3.04,3.75-4.37,1.16.07,23.67-9.73,25.48-10.45,2.6-1.02,4.23-2.61,4.86-5.14,43.22-24.08,90.59-42.06,135.12-63.26-1.69-1.07-2.99.43-3.72-1.37l7.04-2.48.25,1.59c-5.18,6.58,23.94-10.15,27-9.06,1.56-.07,2.41-1.65.76-2.05l-.12-1.85c22.58-9.57,47.76-17.31,72.22-21.02ZM343.88,166.02c.35-.58.34-.94-.17-1.53l-18.04,5.98c.13.47.63.93.67.97l17.55-5.41ZM351.7,165.59c-.27,1.97,1.65.37,1.75-.28-.12-.57-1.41-1.07-1.75.28ZM349.01,167.63c.02-1.33-2.08-1.33-2.06,0-.02,1.33,2.08,1.33,2.06,0ZM342.62,168.77l-20.77,6.76c-.02,1.38,1.68,1.77,2.12.9,1.2-2.37,12.38-1.78,18.65-7.67ZM334.85,177.61c1.94-.63,3.43-1.63,3.62-3.45l-16.45,6.62c.03.14.4.62.62.81l12.2-3.98ZM317.46,183.39c2.22-.54.44-3.07-.92-1.55l-12.3,5.78c4.98,1,8.56-2.25,13.22-4.23ZM305.67,184.32c1.23.16,2.64-.82,1.19-1.89-.57-.49-16.4,7.07-17.37,7.28.12.33.46.8.79,1.06l15.39-6.45ZM301.37,189.98c.47-.43.4-.92-.1-1.24l-12.44,4.22c.26.2.53.57.55.66,4.16-.53,8.15-2.18,11.99-3.64ZM298.1,195.25c4.31.25,2.6-3.6-.47-1-1.93-.05-.96,2,.47,1ZM289.51,198.73c2.29-1.38-.35-2.5-1.16-.89-2.01.8-.2,1.9,1.16.89ZM300.86,199.1c2.19-.56.35-3.13-.98-1.48-4.82,1.95-9.05,3.18-12.93,5.87,4.87-.43,8.82-2.55,13.91-4.39ZM286.07,199.58c-2.71-1-4.23-.64-5.53-.19l.03,1.24c1.96.24,3.67-.64,5.5-1.05ZM286.23,204.44c-1.76-1.96-3.88.31-5.65,1.05-3.09,1.29-5.97,1.34-7.42,4.81l13.07-5.86ZM268.17,205.89c-2.67,0-5.95.69-8.15,3.09,3.1.43,4.26-.75,8.15-3.09ZM259.44,209.45c-4.6-.28-7.7,2.14-11.25,4.21,4.09-.66,7.65-1.43,11.25-4.21ZM244.63,215.66c.02-1.33-2.08-1.33-2.06,0-.02,1.33,2.08,1.33,2.06,0ZM238.17,218.56c.02-1.17-1.82-1.17-1.81,0-.02,1.17,1.82,1.17,1.81,0ZM235.75,223.97l-.46.46.46.46.46-.46-.46-.46ZM234.02,225.34c-2.41-.15-5.5.5-8.02,2.89,2.46-.41,4.08-.36,8.02-2.89ZM212.58,230.38c1.17-.21.53-1.77.11-1.78-.44-.02-1.57-.18-2.12.11l-16.54,8.68c7.06.12,11.35-5.68,18.55-7ZM207.99,234.95l-3.46.85.5,2.03,3.46-.85-.5-2.03ZM179.75,243.93c5.19-.91,8.37-3.17,12.2-5.73-4.4.78-9.32,2.24-12.2,5.73ZM201.17,238.33c-2.57.05-4.01.7-5.11,2.72,2.2.22,4.24-.91,5.11-2.72ZM191.03,243.49c1.92-.73.69-2.59-1.05-1.62l-8.3,4.65c.1.08.55.59.58.68l8.77-3.71ZM171.34,247.24c2.52.94,4.26-.72,4.5-2.59-1.68.48-3.31.75-4.5,2.59ZM164.63,245.23c-.01.54-.01,1.28,0,1.82.01-.54.01-1.28,0-1.82ZM180.33,247.07l-.46.46.46.46.46-.46-.46-.46ZM164.43,248.21c-1.17,1.19.46,3.92,1.57,2.07.22-.96.12-3.31-1.57-2.07ZM178.91,248.27c-3.87-.28-5.65,1.43-7.52,3.28,3.3.26,5.77-1.35,7.52-3.28ZM158.73,249.84c.02-1.33-2.08-1.33-2.06,0-.02,1.33,2.08,1.33,2.06,0ZM160.58,253.53c.02-1.33-2.08-1.33-2.06,0-.02,1.33,2.08,1.33,2.06,0ZM125.83,273.88l43.8-20.72-.63-.87-40.81,18.51c-1.08-.75-2.52-1.86-2.98-1.22l-1.61,2.23c-.59.82.17,3.04,2.23,2.07ZM152.49,256.77c1.97.32,1.41-2.25-.04-1.41l-8.27,4.76c3.36.97,5.41-1.31,8.32-3.34ZM140.61,262.77c.07-.6.36-1.17.55-1.52-2.14.35-4.06,1.45-5.74,2.7l.59.82,4.61-1.99ZM134.15,264.62l-.46.46.46.46.46-.46-.46-.46ZM130.85,265.73c-1.91,1.74,2.36,2.44,1.16.15.12.41.87.29-1.16-.15Z"/>
    <path class="cls-3" d="M296.21,162.82l.97,1.15c-2.26.82-4.8,1.37-6.64,3.7l9.44-2.81-.12,1.75c-22.11,10.51-49.72,22.82-70.85,34.2-2.66-.43-3.21,1.17-.16,2.94-25.39,17.62-71.67,36.12-97.07,53.51-1.49-.12-19.48,9.64-24.19,14.55-9.16,2.5-18.32,9.65-25.8,15.31-.64-.34-1.84-.19-2.56-.17-.88-.97-2.18-1.04-3.86-.23,2.39-7.54,10.33-9.4,16.61-13.12,0,0,17.36-10.55,17.36-10.55,2.61-4.27,12.09-9.38,16.68-11.93.23.54.32,1.01.3,1.52l14.78-7.39c3.54-1.89,7.81-3,10.34-6.44,1.22-1.23,5.43-1.58,2.48-3.9l48.27-26.31,1.44-1.38c1.7-.27,2.9.2,3.89,2.75,1.26-4.24,4.74-4.04,7.25-5.62,10.7-6.77,20.48-8.54,21.43-12.77.4-.19.7-.57.93-1.09,1.88-.84,3.56-2.74,5.95-2.67.22,0,.44-.27.45-.54,16.59-8.53,35.17-17.8,52.71-24.46ZM284.01,169.07c-4.91,3.15-10.59,4.02-14.69,8.67,8-2.75,19.1-9.11,14.69-8.67ZM268.08,177.79l-.46.46.46.46.46-.46-.46-.46ZM262.54,179.64l-.46.46.46.46.46-.46-.46-.46ZM255.35,182.82c-1.6,2.83,2.95,1.45,2.9-.02-.23-.55-2.27-.81-2.9.02ZM253.3,183.79l-7.02,3.51.55,1.11,7.02-3.51-.55-1.11ZM244.12,187.86l-.65.59c-1.79.68-.2,2.4.65.8,1.89.56,2.19-2.09,0-1.4ZM208.47,212.39c.18,1.01,3.32-1.22,3.71-1.83.03.02-.17-.13-.41-.4l-3.29,2.22ZM207.12,212.89l-.46.46.46.46.46-.46-.46-.46ZM206.2,213.81l-.46.46.46.46.46-.46-.46-.46ZM200.46,217.27c2.67-.7,3.32-1.56,4.42-2.38-2.28-.23-3.2,1.51-4.42,2.38ZM171.59,228.16c2.65.49,3.81-.88,4.56-2.26l-4.56,2.26ZM166.52,231.11c1.27-.41.18-2.17-.64-1-3.44.29-1.12,4.22.64,1ZM116.71,258.74c-1.85-.16-1.83,2.72.19,1.72.55-.14,1.68-2.67-.19-1.72ZM102.39,270.16c.02-1.33-2.08-1.33-2.06,0-.02,1.33,2.08,1.33,2.06,0ZM99.38,272c.02-1.03-1.6-1.03-1.59,0-.02,1.03,1.6,1.03,1.59,0ZM90.44,275.89c-3.63,1.77,2.17,1.18,1.63.25-.2-.35-.93-.59-1.63-.25Z"/>
    <path class="cls-13" d="M344.21,191.43c-1,1.29-1.7,3.07-1.76,5-1.74,1.12-25.89,8.47-25.92,10.8-6.52-.68-38.41,13.18-45.12,15.23-.97-1.4-.56-2.31-.56-3.33,11.67-4.77,62.86-23.14,73.36-27.7Z"/>
    <path class="cls-13" d="M346.14,186.96l.07,1.92-74.69,27.39-.02-1.9c24.39-10.3,49.33-19.4,74.64-27.41Z"/>
    <path class="cls-1" d="M344.28,201.79c.24-.04.92-.27,1.34.67l-75.52,27.46c.72,5.74,2.74,9.88,2.48,15.19-4.62-5.52-4.35-12.28-3.51-18.23,2.03.62,4.44.31,6.08-1.05,2.44-.25,4.71-1.36,6.86-2.45,3.04-.66,5.82-1.82,8.67-3.08,2.94-1.08,12.33-3.97,15.05-5.51,2.43-.59,5.48-.84,7.19-2.83,1.83-.12,4.99-.64,6.27-1.97,1.6.05,3.03-.5,3.88-1.67,5.31-1.11,11.14-2.91,15.68-5.61l5.53-.93Z"/>
    <path class="cls-1" d="M361.77,168.71l7.54-2.5c-3.31-1.27-6.44,2.41-6.54-1.35,1.35-1.54,3.39-2.71,3.68-4.82l2.74,1.03c.4.15.69,1.17,1.72.9,7.91-2.09,15.63-4.25,23.56-4.44-2.84,2.74-6.25,1.73-8.57,3.05-.18.42-.2.96,0,1.35,1.65.65,4.17-1.61,6.29.74l-31.24,9.12c-.87-1.91.54-2.46.83-3.09ZM382.12,162.44c-4.9.03-8.38.86-12.29,2.89,4.39.68,9.15-.24,12.29-2.89Z"/>
    <path class="cls-1" d="M346.21,188.88c-3.87,5.67-11.39,5.68-17.56,8.44,0,0-57.79,21.82-57.79,21.82.15.44-.27.57-.67.41l1.34-3.27,74.69-27.39Z"/>
    <path class="cls-3" d="M108.97,275.7l-.75,5.54c-1.63-.32-3.21-.15-4.15,1.61,1.7.7,2.96.02,3.75-.65.57-.3,2.26,0,1.84,1-5.88,3.16-23.86,11.92-29.1,15.51l-1.44-.68c4.51-4.24,9.73-7.91,16.48-10.2-2.32-1.83-4.69.06-6.1,1.01l-.07-1.07c3.89-3.25,12.3-9.26,16.58-12.03l2.96-.03ZM98.92,286.14c2.04-.15,1.11-2.07-.4-.85-.96.67-1.55.61-2.2.6-1.66.84,1.49,1.59,2.6.25Z"/>
    <path class="cls-1" d="M415.56,146.88c-21.69,11.76-23.22,20.83-24.21,44.73-6.08-16.04,6.08-44.68,24.21-44.73Z"/>
    <path class="cls-1" d="M281.2,181.84l.2,1.55c-2.6,1.27-24.1,11.44-25.93,12.6-1.7.89-4.19.66-5.49,2.86,1.94.44,3.37-.3,4.77-.47-3.21,2.83-7.82,4.65-12.01,5.45l-.06-1.11c.76-.82,1.81-.94,2.8-1.31-.34-.27-.5-.55-.55-.66-.47.1-9.4,3.33-9.64,2.9l-.13-.93,46.04-20.89Z"/>
    <path class="cls-13" d="M345.4,181.4l-.03,2.66c-8.2,2.09-33.34,11-41.69,13.93l.02-1.55,41.7-15.05Z"/>
    <path class="cls-1" d="M285.11,175.69l.13,1.25c-15.18,7.6-40.88,20.28-56.4,26.81-3.02-1.77-2.55-3.36.16-2.94-1.98,3.04,20.03-9.1,19.87-8.52,12.06-4.9,24.37-11.65,36.23-16.59Z"/>
    <path class="cls-9" d="M203.61,207.22c.91-.87,1.11-2.12.58-3.17.17.35.46.15.56.09,2,.22,3.14-2.46,4.72-3.06l3.65-1.4.17,1.46-4.88,3.31c4.87-.21,7.88-3.67,11.95-5.55l15.82-7.32c-.94,4.23-10.73,6.01-21.43,12.77-2.51,1.59-5.99,1.38-7.25,5.62-.99-2.55-2.19-3.02-3.89-2.75Z"/>
    <path class="cls-8" d="M315.1,207.54l-31.89,12.45-2.69,1.09c-3.68,1.49-10.84,1.57-10.2,6.08l-1.24-.28c.35-2.49.15-4.99,1.11-7.34.4.16.82.04.67-.41,0,1.02-.41,1.93.56,3.33,5.81-1.5,38.23-15.99,43.68-14.93Z"/>
    <path class="cls-1" d="M180.5,255.74l-43.5,19.16c-.35-.32-.66-.76-.78-1.08l43.97-19.74c.35.46.51.9.31,1.67Z"/>
    <path class="cls-1" d="M357.47,177.65c-2.64-5.78,27.24-9.7,32.06-11.1-.35,1.75-1.86,2.13-3.28,2.42-9.94,1.99-19.07,4.57-28.78,8.68Z"/>
    <path class="cls-1" d="M184.64,251.77c7.83-2.15,15.17-7.4,23.13-9.82,3.28-1.26,6.48-3.63,10.69-2.34l-35.16,15.21c-.96-1.3.28-2.5,1.33-3.05Z"/>
    <path class="cls-9" d="M268.69,210.15c-.45.27-.72,1.39-.93,1.84l-30.92,11.96c10-6.56,21.26-9.33,31.85-13.8Z"/>
    <path class="cls-1" d="M264.51,226.72l-34.14,13.29-.79-1.18,33.97-13.67c1.51-1.26,3.05.46.97,1.55Z"/>
    <path class="cls-1" d="M387.23,173.02l-30.84,9.49.03-1.78,31.19-9.53c.36.49.32,1.59-.38,1.81Z"/>
    <path class="cls-1" d="M383.64,178.95l-28.15,9.05c-.13-.34.08-.91.25-1.28l31.88-10.69c-.57,1.61-1.98,2.28-3.99,2.92Z"/>
    <path class="cls-8" d="M72.94,307.58l-17.46,10.17c-.97.57-.7,4.12-3.05,3.01-.29-2.1.87-4.11,2.99-4.75l-.88-.95c-2.48.43-1.27-3.79.43-4.17.34,1.66.21,2.75.09,3.99l.68.56,6.22-4.01c-.23-2.46.34-2.36,2.22-3.37,2.18,2.46,5.52-.49,7.65-1.76l1.13,1.28Z"/>
    <path class="cls-8" d="M306,222.39c-.92-.38-33.96,14.22-33.83,11.08l33.66-12.55c.42.42.63.81.17,1.48Z"/>
    <path class="cls-9" d="M207.77,241.95c-7.97,2.42-15.29,7.67-23.13,9.82l-.17-1.89,22.57-10.22c-.05.52.21,1.29.73,2.28Z"/>
    <path class="cls-9" d="M153.82,248.9c-3.38,1.87-8.01,2.37-10.87,5.61-1.19.05-2.5,1.49-3.68,1.84-.58.16-1.55.21-1.88.86-1.11.05-4.56.24-5.61.04,16.8-12.35,61.52-32.33,80.4-42.75,5.99-3.05,10.15-8.88,16.67-10.75l6.11-2.63c.07.59.25,1.97.34,2.55-2.12.02-4.28.53-5.69,2.61l5.67-.83c-.55.38-1.45,1.35-1.82,2.02l-5.55.84c1.35-1.29.6-2.74-.96-1.5-.13.37-.39,1.08-.88,1.51-1.96,1.22-4.99.66-6.41,2.57-1.17.12-2.27.54-2.85,1.76,1.65-.36,2.18-1.02,2.85-1.76,1.73.23,3.08-.87,4.55-1.72,1.4-.32,2.09-1.28,3.7-.87-1.67,2.57-5.76,3.18-8.27,5.39l8.43-3.36c2.18-.87,4.47-1.15,5.39-2.87,3.08-.47,6.13-1.4,8.34-3.78,4.5.1,9.52-2.52,12.95-5.31l.72-2.39,3.67-1.93.17,1.36c-.54.36-1.76.6-1.73,2,7.35-3.68,22.08-7.79,28.85-12.12.57.04,1.38-.39,2.51.35-44.52,21.2-91.9,39.18-135.12,63.26ZM216.05,215.77c1.82.47,1.89-1.57.12-1.15-1.2.19-1.9,1.1-2.04,1.55-.09.3,1.37,1.19,1.93-.39ZM174.74,236.08c-1.35-.49-2.63.44-3.45,1.81-.84-.02-1.27.7-1.75,1.06-2.59.13-5.11,1.43-7,3.38,3.64-.85,6.7-2.76,8.75-4.45,1.5.04,2.67-.79,3.45-1.81,1.22.45,3.44-.93,2.92-1.6-.66-.84-2.95.65-2.92,1.6Z"/>
    <path class="cls-9" d="M126.72,263.48c-.44-.19-1.19-.99-.99-1.37l7.74-4.03c1.21,1.49,3.41,1.1,3.91-.87,1.22-.21,2.57-1.35,3.73-1.78.59-.29,1.37-.38,1.84-.91,3.83.12,6.69-2.66,10.19-3.74-1.53,3.61-23.13,10.75-26.41,12.7Z"/>
    <path class="cls-9" d="M242.68,202.73l-.89.96c-2.12-.43-4.4,1.18-6.52,1.76l.96-1.79,8.7-2.89c.05.11.21.39.55.66-.99.36-2.04.49-2.8,1.31Z"/>
    <path class="cls-1" d="M354.46,193.16c9.69-5.33,20.72-8.73,31.5-11.23-10.39,4.3-19.87,8.9-31.5,11.23Z"/>
    <path class="cls-1" d="M265.81,231.81l-22.56,8.08c-.07-.2-.36-.6-.61-.93l22.62-8.6c.55.05,1.18.68.56,1.46Z"/>
    <path class="cls-13" d="M354.48,173.38c-.99-.13-1.94-.38-2.63-.05.18-5.11,6.82-8.05,6.63-13.21,1.63-.16,2.91-2.58,5.76-1.55-4.4,4.74-7.79,9.36-9.76,14.81Z"/>
    <path class="cls-1" d="M223.47,237.43l-.18-1.75,18.55-7.05c.1.25.14.91.07,1.6l-18.44,7.2Z"/>
    <path class="cls-8" d="M119.44,286.95l-23.09,11.02c-.38-.35-.64-.69-.86-1.08l23.7-11.42c.46.41.67.91.25,1.47Z"/>
    <path class="cls-3" d="M82.51,299.55c.76,1.36,1.67,2.6,2.24,3.96l-11.81,4.06-1.13-1.28,10.69-6.75Z"/>
    <polygon class="cls-1" points="320.15 170.41 320.27 172.26 292.51 183.38 292.26 181.79 320.15 170.41"/>
    <path class="cls-9" d="M88.57,296.08c-1.98.63-4.26,1.33-4.82,3.44-.33.11-.76.23-1.24.02-4.04,1.92-12.76,9.62-17.17,9.38,5.37-3.51,17.41-12.1,23.06-14.78l.16,1.93Z"/>
    <path class="cls-8" d="M259.47,238.98c-7.94,4.5-15.82,6.65-24.26,8.96,7.76-3.8,15.36-7.59,24.26-8.96Z"/>
    <path class="cls-1" d="M84.75,303.52l-.97-1.93,2.32-.06c.84,0,.78-1.71,0-1.77l-2.33-.22c.56-2.12,2.84-2.81,4.82-3.44l.2,10.03c-2.41-1.18-2.67-2.41-4.02-2.59Z"/>
    <path class="cls-8" d="M274.97,188.77l.24,1.4-17.63,7.24c-.51-2.43,16.01-7.49,17.39-8.64Z"/>
    <path class="cls-1" d="M217.34,245.33l-14.75,5.6-.63-.81,15.21-6.56c.51-.22,1.35,1.32.17,1.77Z"/>
    <path class="cls-8" d="M152.38,272.55l-16.81,6.65.46-.97c.24.42,20.29-11.04,16.35-5.68Z"/>
    <path class="cls-8" d="M192.41,260.21l-15.63,6.54-.69-.95,16.14-6.99c.44.39.59.82.18,1.4Z"/>
    <path class="cls-8" d="M134.41,279.74l-13.12,6.31c-.31-.68-.43-1.03-.36-.85.79-2.56,3.54-1.77,5.41-2.88,1.01-4.26,4.59-7.16,8.41-6.23-2.78,1.89-5.34,1.8-7.28,4.36l6.94-.71Z"/>
    <path class="cls-8" d="M212.71,251.86l-18.42,7.42-.67-.89,18.94-7.87c.47.38.55.88.15,1.35Z"/>
    <path class="cls-9" d="M54.58,344.33c-2.13-4.47-1.77-9.23-.33-14.02,1.68,4.98,1.19,9.04.33,14.02Z"/>
    <path class="cls-8" d="M420.19,152.95c-4.66,1.02-8.43,1.85-13.28,1.55,4.26-1.86,8.41-3.01,13.28-1.55Z"/>
    <path class="cls-8" d="M174.87,267.45l-43.31,17.88c-.1-.38-.35-.69-.64-.86l43.76-18.3c.34.25.75.79.19,1.29Z"/>
    <path class="cls-1" d="M114.66,268.59c.42,1.62-.88,2.58-2.07,3.52-1.18-.05-2.16.88-2.92,1.74h-1.85s.88-1.71.88-1.71c2.28-.56,4.06-2.2,5.95-3.55Z"/>
    <path class="cls-1" d="M119.73,268.86c.05.51-.18,1.25.67,1.55-4.41,2.09-9.65,4.32-10.53,9.27-.65-.1-1.44.48-.88,1.44l11.24-4.62c.23.24.51.46.87,1.18-4.23.96-7.64,3.55-11.45,5.51.43-1-1.27-1.29-1.84-1,1.27-2.36.18-7.6,2.78-9.28.76-.06,1.39-.34,1.99-.82,2.76-.11,4.81-2.07,7.14-3.25Z"/>
    <path class="cls-1" d="M76.31,293.11c-1.41,2.82-4.51,4.77-7.31,5.49,1.95-3.59,4.61-4.8,7.31-5.49Z"/>
    <path class="cls-1" d="M93.71,281.99c-.53,2.87-3.98,3.74-6.25,4.89-3.72,1.88-6.96,5.16-11.15,6.23.57-2.44,5.25-2.77,2.92-6.16,7.38,1.49,6.48-2.61,14.49-4.96Z"/>
    <path class="cls-1" d="M107.83,273.85c-.47.54-1.13.86-1.85.92.41-.26,1.19-1.02,1.85-.92Z"/>
    <path class="cls-1" d="M105.98,274.77l.03.96-9.09,6.2c-.96-.28-2.12-.16-3.2.05.44-2.42,7.88-6.66,12.27-7.22Z"/>
    <path class="cls-8" d="M241.84,241.18l-12,4-.12-1.47,12.14-4.22c.66-.02,1.09,1.32-.02,1.69Z"/>
    <path class="cls-8" d="M355.43,197.66l15.67-5.93c-4.64,2.73-9.05,5.87-15.67,5.93Z"/>
    <path class="cls-1" d="M264.99,219.43c2.81-1.18,1.44,3.09-8.9,4.85l-.87-.75,9.77-4.1Z"/>
    <path class="cls-1" d="M286.43,185.29c-3.22,2.81-7.6,3.4-11.22,4.89l-.24-1.4,10.25-4.5c.1.37.68.98,1.21,1.02Z"/>
    <path class="cls-8" d="M115.34,293l-18.91,8.86-.79-1.06,20.74-9.7c.82.81.21,1.49-1.04,1.9Z"/>
    <path class="cls-8" d="M424.56,149.5c-3.26,1.07-6.26.79-10.84,1.09,3.05-1.26,6.47-3.23,10.84-1.09Z"/>
    <path class="cls-8" d="M103.17,290.2c-3.08,1.71-5.49,5.12-9.69,4.4,8.58-5.12,16.75-10.31,26.56-13.5-4.77,4.57-10.84,5.75-16.88,9.1Z"/>
    <path class="cls-1" d="M412.14,157.24c-3.29,1.87-6.26,2.21-9.84,1.76,2.87-2.01,6.25-2.32,9.84-1.76Z"/>
    <path class="cls-1" d="M123.99,295.09c-2.07-2.02-3.33-7.35-.74-8.23,1.13-.38,2.59-.72,3.23.73-4.79.09-2.25,4.06-2.02,6.64.16,1.3,2.39,1.84,1.81,3.2-1.43,1.84-2.29-.99-1.8-1.86l-.49-.48Z"/>
    <path class="cls-1" d="M392.19,151.17l.17-1.78c3.21-.29,6.37-2.02,10.24-.83-3.25,2.09-7.01,1.74-10.42,2.61Z"/>
    <path class="cls-8" d="M299.85,166.61l.12-1.75c3.09-.92,6.41-2.59,10.39-1.47-3.13,2.42-7.24,1.69-10.51,3.22Z"/>
    <path class="cls-8" d="M318.54,216.8c-3.68,2.64-7.07,4.08-11.5,4.23,3.43-2.42,7.1-4.14,11.5-4.23Z"/>
    <path class="cls-1" d="M254.57,224.35c-2.63,1.89-5.61,4.4-9.65,3.71,2.82-2.54,5.53-3.37,9.65-3.71Z"/>
    <path class="cls-8" d="M316.54,207.24c-.08-2.27,24.3-9.74,25.92-10.8.7-.23,1.67-.39,2.82.16-2.19,2.76-5.85,2.48-9.07,3.63l-19.67,7.01Z"/>
    <path class="cls-1" d="M406.65,162.27c-3.14,1.67-5.34,2.16-8.24,2.11,1.99-2.84,5.2-2.97,8.24-2.11Z"/>
    <path class="cls-9" d="M218.63,231.1c.59.73.67,1.69.29,2.39l-7.83,1.58c1.99-2.89,4.92-3.09,7.54-3.97Z"/>
    <path class="cls-8" d="M168.67,264.01l24.36-10.89c.51.54,1.12.61,1.6.85-.76-.23-26.02,12.54-25.97,10.04Z"/>
    <path class="cls-9" d="M362.77,164.86c.1,3.76,3.23.08,6.54,1.35l-7.54,2.5c.44-.96.11-2.59-.86-2.9.14-.95.95-1.06,1.86-.95Z"/>
    <path class="cls-8" d="M297.18,163.97l-.97-1.15c2.17-.59,4.26-2.77,7.56-1.23l-6.6,2.38Z"/>
    <path class="cls-13" d="M347.39,175.42c.95.04,2.31.56,2.44,1.52-2.09.05-5.19-.07-6.44,1.84l-.89.21-.33-1.81c1.72-.66,3.46-.93,5.22-1.76Z"/>
    <path class="cls-8" d="M285.24,176.94l-.13-1.25c1.91-.83,3.53-3.22,6.72-2.29-1.79,2.21-4.39,2.45-6.59,3.54Z"/>
    <path class="cls-13" d="M283.21,219.99c1.03,1.44,2.72,1.49,4.18,1.51-1.62.78-3.07,1.65-4.91,1.73.15-1.1-.53-2.38-1.97-2.15l2.69-1.09Z"/>
    <path class="cls-8" d="M292.46,172.51c3.62-1.95,7.64-3.15,12.18-3.73l-10.64,4.48c-.76.32-1.45-.35-1.54-.74Z"/>
    <path class="cls-8" d="M223.82,242.48c.18-.26.21-.88.23-1.16,1.23-1.03,2.63-2.08,4.9-1.45-1.29,1.9-3.19,2.42-5.13,2.61Z"/>
    <path class="cls-8" d="M217.96,249.98c-.71.19-4.52,2-3.51-.14.37-.46,1.23-.97,2.28-1.38,1.39-1.57,3.01.66,1.23,1.53Z"/>
    <path class="cls-8" d="M400.24,167.96c-1.58,1.48-2.78,1.27-3.42,1.09.42-2.54,3.88-3,3.42-1.09Z"/>
    <path class="cls-8" d="M159.58,268.36c-.68,1.64-3.41,2.74-5.68,2.43,1.45-1.7,3.06-2.7,5.68-2.43Z"/>
    <path class="cls-8" d="M164.39,267.52c-1.94,1.02-3.46,1.18-3-.6,0,0,1.87-.92,1.87-.92,1.34-1.53,2.91.71,1.13,1.52Z"/>
    <path class="cls-8" d="M281.4,183.39l-.2-1.55c1.05-.48,1.87-2.09,4.1-.98-1.1,1.46-2.52,1.87-3.9,2.53Z"/>
    <path class="cls-13" d="M323.07,208.33c-.85,1.17-2.28,1.72-3.88,1.67.8-2.35,1.73-1.77,3.88-1.67Z"/>
    <path class="cls-1" d="M198.09,251.15c.6-.81,2.68-.51,2.88,0,.08,1.46-4.5,2.88-2.88,0Z"/>
    <path class="cls-8" d="M126.95,285.31c.61-.78,2.71-.51,2.9.02.06,1.45-4.67,2.89-2.9-.02Z"/>
    <path class="cls-8" d="M314.83,163.94c.02,1.33-2.08,1.33-2.06,0-.02-1.33,2.08-1.33,2.06,0Z"/>
    <path class="cls-13" d="M292.83,219.55c-.65.43-1.37.68-2.15.75.61-.63,1.42-.49,2.15-.75Z"/>
    <path class="cls-13" d="M305.73,214.79c-.57.55-1.27.87-2.02.95.57-.2,1.12-1.01,2.02-.95Z"/>
    <path class="cls-13" d="M312.92,211.97c-.88,1.35-2.31,1.56-3.73,1.9.84-1.28,2.19-1.8,3.73-1.9Z"/>
    <path class="cls-13" d="M338.75,202.72c-.38.68-1.11.98-1.87.94.63-.31,1.04-.8,1.87-.94Z"/>
    <path class="cls-13" d="M345.62,202.46c-.42-.93-1.1-.71-1.34-.67v-1.35c.01-.61.92-.61.92,0l.42,2.02Z"/>
    <rect class="cls-8" x="118.12" y="290.61" width=".65" height=".65" transform="translate(-171.03 168.97) rotate(-45)"/>
    <rect class="cls-8" x="305.63" y="167.77" width=".65" height=".65" transform="translate(-29.25 265.57) rotate(-45)"/>
    <rect class="cls-8" x="233.58" y="248.12" width=".65" height=".65" transform="translate(-107.17 238.17) rotate(-45)"/>
    <path class="cls-1" d="M56.86,286.15l-1.23,23.29c-.47-.03-.93.4-1.2.81v-23.96c0-2.12,3.47-3.42,2.44-.13Z"/>
    <path class="cls-1" d="M79.12,298.03l1.44.68-15.21,10.22c-.42-.05-.95-.55-1.17-.87l13.49-10.03h1.45Z"/>
    <path class="cls-8" d="M69.93,301.6l.96-.99-.96.99Z"/>
    <path class="cls-8" d="M74.58,297.87c-.23,1.83-1.91,2.82-3.69,2.74.28-1.66,2.48-2.16,3.69-2.74Z"/>
    <path class="cls-8" d="M89.49,288.84l-13.07,9.03h-1.84s13.9-10.07,13.9-10.07c.2-.12.63-.17.94-.04l.07,1.07Z"/>
    <path class="cls-8" d="M69.93,301.6c-.07.85-1.6,2.48-2.48,1.47-.52-.6,1.83-1.88,2.48-1.47Z"/>
    <path class="cls-3" d="M75.07,289.59c-1.29.53-1.81-1.08-.38-1.42.55-1.58,3.25-.67,2.23.37-.39.18-1.19-.12-1.85,1.05Z"/>
    <path class="cls-1" d="M139.22,244.3c-.41.48-1.24.7-1.87.86.61-.32,1.17-.75,1.87-.86Z"/>
    <path class="cls-1" d="M135.52,246.08c-.96,2.05-3.24,3.77-5.54,3.76,1.07-2.23,3.19-3.34,5.54-3.76Z"/>
    <path class="cls-1" d="M129.98,249.84c-.66,1.38-2.25,2.28-3.67,2.8.02-.51-.07-.98-.3-1.52,1.2-.7,2.26-1.46,3.97-1.27Z"/>
    <path class="cls-1" d="M151.43,238.81c-1.69.44-3.28.83-4.92.76,1.68-1.78,5.04-3.37,7.4-4.65,2.95,2.32-1.26,2.66-2.48,3.9Z"/>
    <path class="cls-1" d="M137.35,245.17c-.54.37-1.08.91-1.83.92.51-.09,1.34-.66,1.83-.92Z"/>
    <path class="cls-1" d="M146.51,239.57c-.07,1.86-1.76,3.04-3.59,2.85-.22-1.39,2.42-2.31,3.59-2.85Z"/>
    <path class="cls-1" d="M142.92,242.42c-.14.56-1.58,1.9.05,1.92l-1.88.91c.19-.99-1.36-1.1-1.87-.95.58-1.58,2.12-2.05,3.7-1.89Z"/>
    <path class="cls-9" d="M125.83,273.88c-2.06.97-2.82-1.25-2.23-2.07l1.61-2.23c.46-.64,1.91.48,2.98,1.22l40.81-18.51.63.87-43.8,20.72Z"/>
    <path class="cls-5" d="M131.77,257.25l1.55.12.15.71-7.74,4.03c-.2.39.55,1.18.99,1.37-4.12,1.27-8.51,2.54-12.05,5.11-1.89,1.35-3.67,2.98-5.95,3.55l-1.13-.33c4.71-4.91,22.7-14.67,24.19-14.55Z"/>
    <path class="cls-9" d="M342.17,177.18l.33,1.81c-10.89,4.29-21.68,8.1-33.22,11.86-1.47.48-3.23,3.36-5.04.84l37.92-14.5Z"/>
    <path class="cls-9" d="M343.88,166.02l-17.55,5.41s-.54-.5-.67-.97l18.04-5.98c.51.59.52.95.17,1.53Z"/>
    <path class="cls-9" d="M305.67,184.32l-15.39,6.45c-.33-.26-.67-.72-.79-1.06,1.04-.23,16.75-7.75,17.37-7.28,1.44,1.07.05,2.04-1.19,1.89Z"/>
    <path class="cls-9" d="M292.51,183.38l27.76-11.11c1.64.41.81,1.97-.76,2.05-3.07-1.08-32.14,15.63-27,9.07Z"/>
    <path class="cls-9" d="M334.85,177.61l-12.2,3.98c-.22-.19-.59-.67-.62-.81l16.45-6.62c-.19,1.82-1.69,2.82-3.62,3.45Z"/>
    <path class="cls-9" d="M342.62,168.77c-6.27,5.89-17.45,5.29-18.65,7.67-.44.87-2.14.48-2.12-.9l20.77-6.76Z"/>
    <path class="cls-9" d="M123.48,264.5c-2.42,3.9-6.36,6.86-10.89,7.61,1.19-.93,2.49-1.9,2.07-3.52,2.66-1.9,5.73-3.13,8.81-4.1Z"/>
    <path class="cls-9" d="M109.67,273.85c-.41.46-.62,1.23-.71,1.85l-2.96.03-.03-.96c.72-.06,1.37-.38,1.85-.92h1.85Z"/>
    <path class="cls-9" d="M109.67,273.85l.92-.93-.92.93Z"/>
    <path class="cls-9" d="M112.59,272.11c-.6.47-1.23.75-1.99.82.58-.66,1.25-.72,1.99-.82Z"/>
    <path class="cls-9" d="M107.58,271.8l1.13.33-.88,1.71c-4.3,1.37-13.44,4.82-14.11,8.14-5.1.85-9.03,6.7-11.93,5.13,7.48-5.66,16.65-12.81,25.8-15.31Z"/>
    <path class="cls-9" d="M96.92,281.94l-7.49,5.83c-.32-.13-.74-.08-.94.04l-1.02-.93c2.27-1.15,5.72-2.02,6.25-4.89,1.08-.22,2.24-.33,3.2-.05Z"/>
    <path class="cls-9" d="M317.46,183.39c-4.66,1.98-8.24,5.23-13.22,4.23l12.3-5.78c1.36-1.52,3.14,1.02.92,1.55Z"/>
    <path class="cls-9" d="M286.23,204.44l-13.07,5.86c1.45-3.47,4.33-3.52,7.42-4.81,1.77-.74,3.89-3.01,5.65-1.05Z"/>
    <path class="cls-9" d="M300.86,199.1c-5.09,1.85-9.04,3.96-13.91,4.39,3.88-2.69,8.11-3.92,12.93-5.87,1.33-1.65,3.17.92.98,1.48Z"/>
    <path class="cls-9" d="M301.37,189.98c-3.84,1.45-7.82,3.1-11.99,3.64-.02-.09-.29-.46-.55-.66l12.44-4.22c.5.31.56.81.1,1.24Z"/>
    <path class="cls-9" d="M179.75,243.93c2.89-3.49,7.81-4.95,12.2-5.73-3.84,2.56-7.01,4.82-12.2,5.73Z"/>
    <path class="cls-1" d="M153.82,248.9l-.68,1.88c-3.5,1.08-6.35,3.85-10.19,3.74,2.86-3.24,7.49-3.74,10.87-5.61Z"/>
    <path class="cls-1" d="M142.94,254.52c-.47.53-1.25.62-1.84.91.58-.44,1.08-.97,1.84-.91Z"/>
    <path class="cls-1" d="M137.38,257.21c-.5,1.97-2.7,2.35-3.91.87l-.15-.71,4.06-.16Z"/>
    <path class="cls-1" d="M139.26,256.36c-.6.3-1.12.83-1.88.86.33-.64,1.3-.7,1.88-.86Z"/>
    <path class="cls-1" d="M141.11,255.43l-1.85.93,1.85-.93Z"/>
    <path class="cls-9" d="M152.49,256.77c-2.91,2.03-4.96,4.31-8.32,3.34l8.27-4.76c1.46-.84,2.02,1.73.04,1.41Z"/>
    <path class="cls-9" d="M352.71,170.4l-.88,2.01c-2.91-.68-5.08,1.41-8.98,1.52,2.4-3.01,6.55-3.54,9.87-3.52Z"/>
    <path class="cls-9" d="M212.58,230.38c-7.19,1.32-11.49,7.12-18.55,7l16.54-8.68c.55-.29,1.69-.12,2.12-.11.42.02,1.06,1.57-.11,1.78Z"/>
    <path class="cls-9" d="M358.48,160.11l-.14,1.13-9.97,2.33c3.03-3.53,6.76-3.14,10.12-3.46Z"/>
    <path class="cls-9" d="M259.44,209.45c-3.6,2.78-7.16,3.55-11.25,4.21,3.56-2.07,6.66-4.49,11.25-4.21Z"/>
    <path class="cls-9" d="M178.91,248.27c-1.75,1.93-4.22,3.54-7.52,3.28,1.87-1.85,3.65-3.56,7.52-3.28Z"/>
    <path class="cls-8" d="M140.61,262.77l-4.61,1.99-.59-.82c1.68-1.25,3.6-2.34,5.74-2.7-.19.35-.48.92-.55,1.52Z"/>
    <path class="cls-9" d="M201.17,238.33c-.87,1.82-2.91,2.94-5.11,2.72,1.1-2.02,2.54-2.67,5.11-2.72Z"/>
    <path class="cls-9" d="M171.34,247.24c1.2-1.84,2.83-2.11,4.5-2.59-.24,1.87-1.98,3.53-4.5,2.59Z"/>
    <path class="cls-9" d="M268.17,205.89c-3.89,2.34-5.05,3.52-8.15,3.09,2.2-2.4,5.48-3.09,8.15-3.09Z"/>
    <path class="cls-9" d="M191.03,243.49l-8.77,3.71c-.03-.1-.48-.6-.58-.68l8.3-4.65c1.74-.97,2.97.89,1.05,1.62Z"/>
    <rect class="cls-9" x="204.74" y="235.34" width="3.56" height="2.1" transform="translate(-50.51 56.2) rotate(-13.83)"/>
    <path class="cls-9" d="M234.02,225.34c-3.94,2.53-5.56,2.48-8.02,2.89,2.51-2.39,5.61-3.04,8.02-2.89Z"/>
    <path class="cls-9" d="M286.07,199.58c-1.83.41-3.54,1.29-5.5,1.05l-.03-1.24c1.3-.45,2.82-.81,5.53.19Z"/>
    <path class="cls-9" d="M298.1,195.25c-1.43,1-2.4-1.05-.47-1,3.07-2.6,4.78,1.25.47,1Z"/>
    <path class="cls-8" d="M164.43,248.21c2.19-1.72,2.27,3.64.19,2.54-.64-.47-.79-1.84-.19-2.54Z"/>
    <path class="cls-8" d="M111.69,276.01c2.24-2.44,5.28-4.17,8.71-5.59-2.58,2.29-5.25,4.66-8.71,5.59Z"/>
    <path class="cls-9" d="M160.58,253.53c.02,1.33-2.08,1.33-2.06,0-.02-1.33,2.08-1.33,2.06,0Z"/>
    <path class="cls-9" d="M158.73,249.84c.02,1.33-2.08,1.33-2.06,0-.02-1.33,2.08-1.33,2.06,0Z"/>
    <path class="cls-8" d="M349.01,167.63c.02,1.33-2.08,1.33-2.06,0-.02-1.33,2.08-1.33,2.06,0Z"/>
    <path class="cls-9" d="M244.63,215.66c.02,1.33-2.08,1.33-2.06,0-.02-1.33,2.08-1.33,2.06,0Z"/>
    <path class="cls-5" d="M362.77,164.86h-.93c1.15-1.91,2.83-3.49,4.61-4.82-.29,2.1-2.33,3.27-3.68,4.82Z"/>
    <path class="cls-8" d="M238.17,218.56c.02,1.17-1.82,1.17-1.81,0-.02-1.17,1.82-1.17,1.81,0Z"/>
    <path class="cls-8" d="M351.7,165.59c.34-1.35,1.63-.85,1.75-.28-.1.65-2.03,2.25-1.75.28Z"/>
    <path class="cls-9" d="M289.51,198.73c-1.35,1.01-3.16-.09-1.16-.89.81-1.61,3.44-.48,1.16.89Z"/>
    <path class="cls-9" d="M132,265.88c.12.41.87.29-1.16-.15-1.91,1.74,2.36,2.44,1.16.15Z"/>
    <path class="cls-8" d="M164.63,245.23c.01.54.01,1.28,0,1.82-.01-.54-.01-1.28,0-1.82Z"/>
    <rect class="cls-9" x="235.43" y="224.11" width=".65" height=".65" transform="translate(-89.65 232.44) rotate(-45)"/>
    <rect class="cls-8" x="133.82" y="264.75" width=".65" height=".65" transform="translate(-148.15 172.5) rotate(-45)"/>
    <path class="cls-9" d="M343.4,178.78c.16-.36.5-.82.9-.96-.22.3-.57.8-.9.96Z"/>
    <rect class="cls-9" x="180.01" y="247.2" width=".65" height=".65" transform="translate(-122.21 200.01) rotate(-45)"/>
    <path class="cls-9" d="M271.43,181.66c-57.64,28.31-55.42,24.28.22-1.91l-.22,1.91Z"/>
    <path class="cls-9" d="M284.01,169.07c4.41-.44-6.69,5.92-14.69,8.67,4.1-4.64,9.78-5.51,14.69-8.67Z"/>
    <path class="cls-8" d="M116.71,258.74c1.86-.96.73,1.58.19,1.72-2.02,1-2.03-1.88-.19-1.72Z"/>
    <path class="cls-5" d="M255.35,182.82c.62-.83,2.66-.57,2.9-.02.05,1.47-4.49,2.84-2.9.02Z"/>
    <path class="cls-8" d="M166.52,231.11c-1.75,3.22-4.07-.71-.64-1,.82-1.17,1.9.59.64,1Z"/>
    <path class="cls-8" d="M102.39,270.16c.02,1.33-2.08,1.33-2.06,0-.02-1.33,2.08-1.33,2.06,0Z"/>
    <path class="cls-9" d="M171.59,228.16l4.56-2.26c-.74,1.39-1.91,2.75-4.56,2.26Z"/>
    <path class="cls-9" d="M200.46,217.27c1.22-.87,2.14-2.62,4.42-2.38-1.1.82-1.75,1.68-4.42,2.38Z"/>
    <path class="cls-8" d="M208.47,212.39l3.29-2.22c.25.27.44.42.41.4-.38.6-3.53,2.84-3.71,1.83Z"/>
    <rect class="cls-5" x="246.15" y="185.48" width="7.85" height="1.24" transform="translate(-56.83 131.48) rotate(-26.57)"/>
    <path class="cls-8" d="M90.44,275.89c.7-.34,1.43-.1,1.63.25.54.93-5.26,1.53-1.63-.25Z"/>
    <rect class="cls-8" x="206.79" y="213.03" width=".65" height=".65" transform="translate(-90.2 208.95) rotate(-45)"/>
    <rect class="cls-9" x="205.87" y="213.95" width=".65" height=".65" transform="translate(-91.12 208.56) rotate(-45)"/>
    <path class="cls-8" d="M99.38,272c.02,1.03-1.6,1.03-1.59,0-.02-1.03,1.6-1.03,1.59,0Z"/>
    <rect class="cls-9" x="267.76" y="177.93" width=".65" height=".65" transform="translate(-47.52 241.77) rotate(-45)"/>
    <rect class="cls-9" x="262.21" y="179.77" width=".65" height=".65" transform="translate(-50.45 238.39) rotate(-45)"/>
    <path class="cls-5" d="M280.51,221.08c1.44-.23,2.12,1.05,1.97,2.15-.15,0-.33.09-.47.16-.44-.31-1.48-.3-1.41.7-2.17,1.69-5.64.94-7.46,2.73-.95.32-1.79.54-2.83.35-.63-4.51,6.52-4.59,10.2-6.08Z"/>
    <path class="cls-13" d="M275.15,225.84c-.53.67-1.3.74-2.01.98.39-.89,1.2-.89,2.01-.98Z"/>
    <path class="cls-13" d="M280.6,224.08c-.07-1,.97-1.01,1.41-.7l-1.41.7Z"/>
    <path class="cls-9" d="M382.12,162.44c-3.14,2.65-7.89,3.57-12.29,2.89,3.9-2.03,7.38-2.86,12.29-2.89Z"/>
    <path class="cls-9" d="M79.12,298.03c-.68.03-2.03-.03-2.7-.15l13.07-9.03c1.41-.95,3.78-2.84,6.1-1.01-6.75,2.29-11.96,5.96-16.48,10.2Z"/>
    <path class="cls-9" d="M108.22,281.24c-.39,1.59-2.11,2.34-4.15,1.61.94-1.76,2.52-1.94,4.15-1.61Z"/>
    <path class="cls-9" d="M98.92,286.14c-1.11,1.34-4.26.58-2.6-.25.65,0,1.24.07,2.2-.6,1.51-1.21,2.44.71.4.85Z"/>
    <path class="cls-8" d="M233.45,207.47c-.91,1.72-3.21,2-5.39,2.87l-8.43,3.36c2.51-2.2,6.6-2.82,8.27-5.39l5.55-.84Z"/>
    <path class="cls-8" d="M227.91,208.31c-.48.07-1.39-.22-1.84.01.49-.43.75-1.14.88-1.51,1.56-1.25,2.31.2.96,1.5Z"/>
    <path class="cls-8" d="M241.79,203.68c-2.21,2.39-5.26,3.32-8.34,3.78,1.6-2.58,5.57-3.85,8.34-3.78Z"/>
    <polygon class="cls-8" points="242.74 203.83 241.79 203.68 242.68 202.73 242.74 203.83"/>
    <path class="cls-8" d="M235.29,203.66h.94s-.96,1.78-.96,1.78l-5.67.83c1.4-2.09,3.57-2.59,5.69-2.61Z"/>
    <path class="cls-8" d="M224.2,209.18c-1.48.85-2.82,1.95-4.55,1.72,1.06-1.17,2.77-1.82,4.55-1.72Z"/>
    <path class="cls-8" d="M219.65,210.89c-.67.73-1.19,1.4-2.85,1.76.57-1.22,1.68-1.64,2.85-1.76Z"/>
    <path class="cls-8" d="M226.06,208.32c-.51.26-1.19.89-1.86.86l1.86-.86Z"/>
    <path class="cls-5" d="M255.47,195.99l-.72,2.39c-1.4.16-2.83.91-4.77.47,1.3-2.2,3.8-1.97,5.49-2.86Z"/>
    <path class="cls-5" d="M83.78,301.58c-.33-.65-.9-1.15-1.27-2.03.91.15,2.65-.03,3.58.2.79.06.85,1.76,0,1.77l-2.32.06Z"/>
    <path class="cls-8" d="M174.74,236.08c-.03-.95,2.26-2.44,2.92-1.6.53.67-1.7,2.05-2.92,1.6Z"/>
    <path class="cls-8" d="M169.54,238.95c-1.94,1.5-3.78,2.71-7,3.38,1.89-1.95,4.42-3.25,7-3.38Z"/>
    <path class="cls-8" d="M171.29,237.88c.11.42-.52.76-1.75,1.06.47-.36.91-1.09,1.75-1.06Z"/>
    <path class="cls-8" d="M174.74,236.08c-.78,1.02-1.96,1.85-3.45,1.81.82-1.37,2.11-2.3,3.45-1.81Z"/>
    <path class="cls-8" d="M216.05,215.77c-.55,1.58-2.02.69-1.93.39.14-.45.85-1.35,2.04-1.55,1.77-.42,1.7,1.62-.12,1.15Z"/>
    <g>
      <path class="cls-5" d="M205.72,154.39c1.2,4.05-1.82,6.74,1.13,10.1-.84,2.92-3.34,7.57-.27,10.79-3.12,1.55-1.06,2.44,1.29,2.97-2.43.77-3.69,2.58-3.43,5.04-1.64.71,1.19,1.3,1.49,1.11-1.6,1.41-2.42,3.61-1.34,5.51.24,2.57.66,5.5.12,8.01-1.19,1.49-.54,4.36-.51,6.14,1.05,1.79-.75,3.45-2.01,4.55-1.18-.12-1.46-1.52-.5-2.3l1.54-51.29,2.51-.62Z"/>
      <path class="cls-1" d="M223,127.92c-2.05-5.49.58-11.86-.32-17.55-.76-2.38.66-4.52.66-6.84l1.07.16-1.42,24.23Z"/>
      <path class="cls-9" d="M226.04,77.12c-1.11.43-1.47,3.38,0,3.68.1,4.32-1.78,15.05-.94,19.29-1.29.28-2.32.99-3.55,2.44l1.79,1c.02.36.06.95-.06,1.29l-2.1.21c-1.36-1.99.34-3.41,1.16-5.66,2.9-8-.5-19.58,2.67-23.19l1.03.93Z"/>
      <path class="cls-9" d="M229.52,75.53c-1.27-.74-2.76-1.17-4.27-.8"/>
      <path class="cls-5" d="M223.29,104.83c-.67,1.82-1.04,3.64-.6,5.55-1.87-.42-.65-4.09-1.5-5.34l2.1-.21Z"/>
      <path class="cls-9" d="M230.74,99.29c-.82-.19-1.91-1.05-1.88-2.06.63.36,1.87,1.26,1.88,2.06Z"/>
      <path class="cls-3" d="M224.1,134.97l1,1.25c-.97.6-1.96,1.78-2.77,2.59-1.26-.24-.97,1.52,0,1.09l6.38-2.84,1.1,1.12c-3.56,2.99-15.75,10.37-19.88,12.89.21.35.7.58,1.22.64,3.04-1.07,14.4-11.22,17.72-8.15l-5.6,4.2c-3.96,2.97-9.98,3.84-13.2,8.99,4.86-2.78,16.35-9.23,21.32-11.48l1.17,1.16c-3.83,2.36-20.46,11.49-23.01,14.96l21.1-10.68,1.03,1.08-5.49,3.89c.98,1.06,1.99.86,2.8.7l.69,1.3c-3.27,2.22-11.38,7.33-14.82,9.47l.64.81,7.02-3.26.77,1.18-8.61,5.65c.12.18.49.53.92.79,2.79-1.5,6.28-2.7,8.66-4.83.95-.54,2.62-.06,2.8,1.19l-9.5,5.8c0,.26.03.85.22,1.36l8.47-3.81.6,1.29c-3.04,2.39-7.08,2.48-9.62,6.69l11.57-4.42v1.33s-15.07,8.9-15.07,8.9c3.82.52,6.47-1.58,9.28-2.71l1.26,1.3c-1.35.21-4.9,2.74-.94,2.61,0,.6-.03,2.25.01,2.82-2.77.53-4.5,3.19-6.69,4.59-1.24-.33-2.22.87-2.57,1.96-.77-.09-1.33.49-1.9.76-2.05.05-2.15,2.48-2.68,3.95-1.58.61-2.73,3.28-4.72,3.06l-.7-1.42v-2.71c1.25-2.83.86-5.87.68-8.91,0-.31.81-.85,1.11-.92,2.15-1.51-1.48-1.97-1.25-.28-1.08-1.9-.26-4.1,1.34-5.51.75.23.88-.53.65-.73-.57-.48-1.89-.5-2.13-.38-.26-2.46,1-4.27,3.43-5.04-2.35-.52-4.41-1.42-1.29-2.97-3.07-3.22-.57-7.86.27-10.79-2.94-3.36.08-6.05-1.13-10.1-.74-2.5.94-4.94,2.94-6.67-4.95,2.17-2.17-3.94.61-6.19.86.51,3.37,1.63,4.31,2.05-.66.76-2.18,1.35-2.03,3.26,3.57-1.56,6.5-3.75,9.1-6.23l-.59-.74-5.72,3.07c-1.21-.39-1.22-1.17-.39-1.69l10.14-6.28ZM225.11,157.96c1.47-4.21-10.43,3.67-11.21,5.79,4-1.22,7.72-3.62,11.21-5.79ZM208.74,170.6c-.91.95.34,2.28,1.08,1.65.4-.36,2.14-1.56.93-1.85-.71-.15-1.71-.1-2.01.2ZM214.15,180.56c.02-1.33-2.08-1.33-2.06,0-.02,1.33,2.08,1.33,2.06,0ZM210.82,181.49l-.46.46.46.46.46-.46-.46-.46ZM219.97,188.49c-2.22-.76-4.57.83-5.79,3.12,1.95-.53,3.63-.48,5.79-3.12Z"/>
      <path class="cls-1" d="M210.65,142.25l-1.37-.72c9.68-6.67,20.7-20.68,33.61-20.55-11.3,4.95-23.63,13.06-32.24,21.27Z"/>
      <path class="cls-1" d="M223.45,192.72c-2.43,1.59-11.15,7.95-13.98,8.36l.91-2.95,2.12.03c.4,0,1.07-.91-.34-1.04,1.13-1.11,4.52-.3,3.7-2.78.27.37,7.17-1.57,7.6-1.63Z"/>
      <path class="cls-9" d="M224.09,142.34l.11,1.3-13.06,8.08c-.52-.06-1.01-.29-1.22-.64l14.17-8.73Z"/>
      <path class="cls-9" d="M223.26,147.76l.27,1.41-13.48,7.57c3.22-5.14,9.24-6.01,13.2-8.99Z"/>
      <path class="cls-1" d="M224.05,165.7c-.22.13-.49.23-.78.17l-.77-1.18c.61-.28,1.33-1.33,1.62-1.91l14.44-6.12c.32.21.41.36.48.52l-15,8.53Z"/>
      <path class="cls-9" d="M224.05,165.7l.18,1.78c-2.39,2.13-5.87,3.33-8.66,4.83-.42-.26-.8-.61-.92-.79l8.61-5.65c.29.05.56-.05.78-.17Z"/>
      <path class="cls-9" d="M224.13,162.78c-.46,2.15-7.07,4.21-8.64,5.17l-.64-.81,9.42-5.92c.05.55.06,1.17-.14,1.56Z"/>
      <path class="cls-1" d="M228.86,143.56c-.28-.28-.65-.55-.99-.59.16-2.14,5.92-4.27,10.26-4.54l-9.27,5.13Z"/>
      <path class="cls-1" d="M232.45,130.39l.02,1.26-7.37,4.58-1-1.25c2.74-1.7,4.97-3.78,8.35-4.58Z"/>
      <path class="cls-8" d="M223.45,192.72l-.14-2.9,9.26-1.54c-3.06,1.66-5.98,3.28-9.12,4.45Z"/>
      <path class="cls-1" d="M224.24,184.38l-1.26-1.3c3.02-1.21,5.53-4.18,9.7-3.18l-8.45,4.48Z"/>
      <path class="cls-8" d="M229.8,138.18l-1.1-1.12c3.12-1.39,5.97-3.5,9.39-4.26-2.51,3.16-5.81,3.57-8.29,5.38Z"/>
      <path class="cls-1" d="M229.67,157.67l-.69-1.3c1.68-1.68,4.32-2.63,7.47-2.46l-6.79,3.76Z"/>
      <path class="cls-1" d="M231.67,151.78l-1.03-1.08c2.19-1.11,4.23-3.07,7.49-3.16-1.68,2.4-4.4,2.79-6.45,4.24Z"/>
      <path class="cls-8" d="M226.06,91.91c.03,1.36.21,3.11-1.25,3.7l1.25-12.96v9.26Z"/>
      <path class="cls-8" d="M223.29,188.95l.02-1.95,8.35-2.67c-2.66,2.35-5.34,3.58-8.36,4.62Z"/>
      <path class="cls-8" d="M226.82,173.3l-.6-1.29c1.8-.81,3.52-2.83,6.52-2.41-1.42,2.37-4.25,2.39-5.92,3.7Z"/>
      <path class="cls-8" d="M237.11,190.48c.81.88-16.38,8.04-16.74,8.41-4.06,1.88-7.08,5.35-11.95,5.55,2.62-2.9,24.84-12.12,28.69-13.97Z"/>
      <path class="cls-8" d="M228.78,176.9v-1.33c1.6-.62,3.75-3.02,6.33-1.88l-6.33,3.21Z"/>
      <path class="cls-1" d="M227.04,168.67c-.11-.37-.38-.89-.64-1.07,1.91-1.95,4.77-3.21,8.01-3.56l-7.37,4.63Z"/>
      <path class="cls-8" d="M232.55,146.43l-1.17-1.16c1.97-.98,3.67-3.14,6.87-2.39-1.58,2-3.83,2.44-5.7,3.55Z"/>
      <path class="cls-8" d="M232.46,131.65l-.02-1.26c1.97-.47,4.21-3.66,7.29-1.55l-7.28,2.81Z"/>
      <path class="cls-8" d="M225.11,100.09c.08,1.23-.65,2.33-.69,3.6-.76.08-2.25-.78-2.87-1.16,1.23-1.45,2.27-2.16,3.55-2.44Z"/>
      <path class="cls-8" d="M226.05,80.8c-1.47-.3-1.12-3.25,0-3.68,1.08.91.88,2.58,0,3.68Z"/>
      <rect class="cls-8" x="235.43" y="167.77" width=".65" height=".65" transform="translate(-49.81 215.94) rotate(-45)"/>
      <path class="cls-9" d="M222.32,139.9c-.96.43-1.25-1.33,0-1.09v1.09Z"/>
      <rect class="cls-8" x="233.58" y="168.69" width=".65" height=".65" transform="translate(-51 214.9) rotate(-45)"/>
      <path class="cls-9" d="M205.92,184.39c-.3.18-3.13-.4-1.49-1.11.24-.11,1.56-.09,2.13.38.23.2.1.96-.65.73Z"/>
      <path class="cls-9" d="M204.73,191.1c-.93-3.46,3.37-2.46,1.11-.92-.3.08-1.11.61-1.11.92Z"/>
      <path class="cls-1" d="M204.06,200.01c0-.77.05-1.55.64-2.1l-.64,2.1Z"/>
      <path class="cls-1" d="M204.75,204.14c-.74.61-.62-1.11-.7-1.42l.7,1.42Z"/>
      <path class="cls-9" d="M225.11,157.96c-3.49,2.17-7.21,4.57-11.21,5.79,2.81-4.1,6.97-5.08,10.46-7.27l.75,1.48Z"/>
      <path class="cls-9" d="M213.59,143.57c.23-.55,5.92-3.34,6.48-3.71l.59.74c-2.6,2.47-5.53,4.66-9.1,6.23-.14-1.91,1.37-2.5,2.03-3.26Z"/>
      <path class="cls-9" d="M223.31,189.82l.14,2.9-6.82,1.69c2.19-1.41,3.92-4.06,6.69-4.59Z"/>
      <path class="cls-9" d="M219.97,188.49c-2.16,2.63-3.84,2.59-5.79,3.12,1.23-2.28,3.57-3.88,5.79-3.12Z"/>
      <path class="cls-8" d="M208.74,170.6c.26-.4,3.4-.6,2.11.77,0,0-1.03.88-1.03.88-.74.63-1.99-.7-1.08-1.65Z"/>
      <path class="cls-9" d="M214.15,180.56c.02,1.33-2.08,1.33-2.06,0-.02-1.33,2.08-1.33,2.06,0Z"/>
      <path class="cls-9" d="M214.06,196.37c.27-.88.94-1.71,1.8-2.02.48,1.12-.56,2.22-1.8,2.02Z"/>
      <path class="cls-9" d="M212.16,197.13c1.41.12.74,1.04.34,1.04l-2.12-.03c.26-.8,1.29-.78,1.78-1Z"/>
      <path class="cls-9" d="M222.74,115.63c-.43,4.03-1.04,8.55.27,12.29.66.19,1.01.7,1.5,1.28l-15.23,12.32c-2.78,2.25-5.56,8.36-.61,6.19-2,1.73-3.69,4.17-2.94,6.67l-2.51.62c-1.47-15.05,8.44-16.28,15.24-23.75,3.68-4.03-.72-16,4.28-15.63Z"/>
      <path class="cls-5" d="M225.11,157.96l-.75-1.48c.49-.31,1.27,1.15.75,1.48Z"/>
      <rect class="cls-8" x="210.49" y="181.62" width=".65" height=".65" transform="translate(-66.91 202.36) rotate(-45)"/>
    </g>
  </g>
  <text class="cls-4" transform="translate(72 404.72)"><tspan class="cls-12" x="0" y="0">p</tspan><tspan class="cls-6" x="46.01" y="0">e</tspan><tspan class="cls-16" x="89.75" y="0">r</tspan><tspan class="cls-10" x="118.18" y="0">i</tspan><tspan class="cls-2" x="136.2" y="0">s</tspan><tspan class="cls-11" x="176.5" y="0">c</tspan><tspan class="cls-14" x="218.77" y="0">o</tspan><tspan class="cls-15" x="263.48" y="0">p</tspan><tspan class="cls-7" x="309.49" y="0">e</tspan></text>
</svg>