<?xml version="1.0" encoding="UTF-8"?>
<svg id="Layer_2" data-name="Layer 2" xmlns="http://www.w3.org/2000/svg" xmlns:xlink="http://www.w3.org/1999/xlink" viewBox="0 0 600 600">
  <defs>
    <style>
      .cls-1 {
        fill: url(#linear-gradient-15);
      }

      .cls-2 {
        fill: url(#linear-gradient-13);
      }

      .cls-3 {
        fill: url(#linear-gradient-2);
      }

      .cls-4 {
        fill: url(#linear-gradient-25);
      }

      .cls-5 {
        fill: url(#linear-gradient-10);
      }

      .cls-6 {
        fill: url(#linear-gradient-12);
      }

      .cls-7 {
        fill: url(#linear-gradient-4);
      }

      .cls-8 {
        fill: url(#linear-gradient-3);
      }

      .cls-9 {
        fill: url(#linear-gradient-5);
      }

      .cls-10 {
        fill: url(#linear-gradient-22);
      }

      .cls-11 {
        fill: url(#linear-gradient-24);
      }

      .cls-12 {
        fill: #231f20;
      }

      .cls-13 {
        fill: url(#linear-gradient-8);
      }

      .cls-14 {
        fill: url(#linear-gradient-14);
      }

      .cls-15 {
        fill: url(#linear-gradient-20);
      }

      .cls-16 {
        fill: url(#linear-gradient-17);
      }

      .cls-17 {
        fill: url(#linear-gradient-7);
      }

      .cls-18 {
        fill: url(#linear-gradient-9);
      }

      .cls-19 {
        fill: url(#linear-gradient-11);
      }

      .cls-20 {
        fill: url(#linear-gradient-19);
      }

      .cls-21 {
        fill: url(#linear-gradient-6);
      }

      .cls-22 {
        fill: url(#linear-gradient-21);
      }

      .cls-23 {
        fill: url(#linear-gradient-16);
      }

      .cls-24 {
        fill: url(#linear-gradient);
      }

      .cls-25 {
        fill: url(#linear-gradient-23);
      }

      .cls-26 {
        fill: url(#linear-gradient-18);
      }
    </style>
    <linearGradient id="linear-gradient" x1="3.73" y1="69.5" x2="473.99" y2="414.12" gradientUnits="userSpaceOnUse">
      <stop offset="0" stop-color="#a2e2ef"/>
      <stop offset="1" stop-color="#32c0dc"/>
    </linearGradient>
    <linearGradient id="linear-gradient-2" x1="3.8" y1="69.4" x2="474.06" y2="414.02" xlink:href="#linear-gradient"/>
    <linearGradient id="linear-gradient-3" x1="63.27" y1="-11.76" x2="533.54" y2="332.86" gradientTransform="translate(296.5 -181.79) rotate(60)" xlink:href="#linear-gradient"/>
    <linearGradient id="linear-gradient-4" x1="-7.18" y1="84.38" x2="463.09" y2="429" xlink:href="#linear-gradient"/>
    <linearGradient id="linear-gradient-5" x1="-62.59" y1="160" x2="407.67" y2="504.62" gradientTransform="translate(403.6 3.72) rotate(60)" xlink:href="#linear-gradient"/>
    <linearGradient id="linear-gradient-6" x1="-28.02" y1="112.83" x2="442.24" y2="457.44" xlink:href="#linear-gradient"/>
    <linearGradient id="linear-gradient-7" x1="-74.42" y1="176.13" x2="395.85" y2="520.75" xlink:href="#linear-gradient"/>
    <linearGradient id="linear-gradient-8" x1="70.79" y1="-22.02" x2="541.05" y2="322.6" xlink:href="#linear-gradient"/>
    <linearGradient id="linear-gradient-9" x1="3.89" y1="69.28" x2="474.15" y2="413.9" gradientTransform="translate(290.29 -128.28) rotate(45)" xlink:href="#linear-gradient"/>
    <linearGradient id="linear-gradient-10" x1="62.85" y1="-11.18" x2="533.12" y2="333.44" gradientTransform="translate(202.85 -164.51) rotate(45)" xlink:href="#linear-gradient"/>
    <linearGradient id="linear-gradient-11" x1="-55.07" y1="149.74" x2="415.19" y2="494.36" xlink:href="#linear-gradient"/>
    <linearGradient id="linear-gradient-12" x1="-4.05" y1="80.11" x2="466.21" y2="424.73" xlink:href="#linear-gradient"/>
    <linearGradient id="linear-gradient-13" x1="11.83" y1="58.44" x2="482.09" y2="403.06" gradientTransform="translate(652.36 -128.08) rotate(76.72)" xlink:href="#linear-gradient"/>
    <linearGradient id="linear-gradient-14" x1="-63.01" y1="160.57" x2="407.25" y2="505.19" gradientTransform="translate(302.65 -34.44) rotate(45)" xlink:href="#linear-gradient"/>
    <linearGradient id="linear-gradient-15" x1="18.93" y1="48.76" x2="489.19" y2="393.38" gradientTransform="translate(432.51 -237.41) rotate(45)" xlink:href="#linear-gradient"/>
    <linearGradient id="linear-gradient-16" x1="71.63" y1="-23.16" x2="541.89" y2="321.46" gradientTransform="translate(354.34 -269.79) rotate(45)" xlink:href="#linear-gradient"/>
    <linearGradient id="linear-gradient-17" x1="130.59" y1="-103.62" x2="600.86" y2="241" gradientTransform="translate(266.9 -306.01) rotate(45)" xlink:href="#linear-gradient"/>
    <linearGradient id="linear-gradient-18" x1="123.2" y1="-93.52" x2="593.46" y2="251.1" gradientTransform="translate(72.79 -145.21) rotate(22.5)" xlink:href="#linear-gradient"/>
    <linearGradient id="linear-gradient-19" x1="115.56" y1="-83.1" x2="585.82" y2="261.52" gradientTransform="translate(124.68 -196.88) rotate(45)" xlink:href="#linear-gradient"/>
    <linearGradient id="linear-gradient-20" x1="55.76" y1="-1.5" x2="526.02" y2="343.12" gradientTransform="translate(261.8 -116.13) rotate(76.72)" xlink:href="#linear-gradient"/>
    <linearGradient id="linear-gradient-21" x1="-11.14" y1="89.79" x2="459.12" y2="434.41" gradientTransform="translate(148.08 -19.16) rotate(45)" xlink:href="#linear-gradient"/>
    <linearGradient id="linear-gradient-22" x1="-70.11" y1="170.25" x2="400.15" y2="514.87" gradientTransform="translate(235.53 17.06) rotate(45)" xlink:href="#linear-gradient"/>
    <linearGradient id="linear-gradient-23" x1="-123.13" y1="242.6" x2="347.13" y2="587.22" gradientTransform="translate(314.16 49.63) rotate(45)" xlink:href="#linear-gradient"/>
    <linearGradient id="linear-gradient-24" x1="-115.88" y1="232.71" x2="354.39" y2="577.33" gradientTransform="translate(595.29 165.8) rotate(76.72)" xlink:href="#linear-gradient"/>
    <linearGradient id="linear-gradient-25" x1="-107.78" y1="221.66" x2="362.49" y2="566.28" gradientTransform="translate(455.91 -59.69) rotate(45)" xlink:href="#linear-gradient"/>
  </defs>
  <rect class="cls-12" width="600" height="600"/>
  <g id="big_symbol" data-name="big symbol">
    <g>
      <polygon class="cls-24" points="402.61 340.34 411.59 355.88 300 420.31 183.93 353.28 183.93 219.26 188.71 216.49 300 152.25 411.59 216.66 402.61 232.21 300 172.97 206.66 226.86 201.88 229.62 201.88 342.92 300 399.58 402.61 340.34"/>
      <polygon class="cls-3" points="300 526.01 92.38 406.14 92.38 166.4 300 46.53 505.23 165.02 500.44 173.31 300 57.59 101.95 171.93 101.95 400.62 300 514.96 500.44 399.23 505.23 407.52 300 526.01"/>
      <rect class="cls-8" x="300.9" y="48.78" width="9.57" height="234.21" transform="translate(9.18 347.67) rotate(-60)"/>
      <polygon class="cls-7" points="206.66 226.86 201.88 229.62 201.88 235.15 183.93 224.79 94.77 173.32 99.56 165.03 188.71 216.49 206.66 226.86"/>
      <rect class="cls-9" x="193.8" y="234.28" width="9.57" height="234.21" transform="translate(-205.02 347.67) rotate(-60)"/>
      <polygon class="cls-21" points="304.79 561.11 295.21 561.11 295.21 407.18 500.44 288.69 505.23 296.98 304.79 412.71 304.79 561.11"/>
      <rect class="cls-17" x="188.11" y="229.62" width="9.57" height="284.81"/>
      <g>
        <circle class="cls-13" cx="407.1" cy="224.44" r="25.53"/>
        <circle class="cls-18" cx="300" cy="286.27" r="25.53" transform="translate(-114.56 295.98) rotate(-45)"/>
        <circle class="cls-5" cx="300" cy="162.6" r="25.53" transform="translate(-27.11 259.76) rotate(-45)"/>
        <circle class="cls-19" cx="300" cy="409.94" r="25.53"/>
        <circle class="cls-6" cx="192.9" cy="224.44" r="25.53"/>
        <circle class="cls-2" cx="407.1" cy="348.11" r="25.53" transform="translate(-25.23 664.34) rotate(-76.72)"/>
        <circle class="cls-14" cx="192.9" cy="348.11" r="25.53" transform="translate(-189.65 238.36) rotate(-45)"/>
        <circle class="cls-1" cx="502.83" cy="403.38" r="13.17" transform="translate(-137.96 473.7) rotate(-45)"/>
        <circle class="cls-23" cx="502.83" cy="292.84" r="13.17" transform="translate(-59.79 441.33) rotate(-45)"/>
        <circle class="cls-16" cx="502.83" cy="169.17" r="13.17" transform="translate(27.66 405.1) rotate(-45)"/>
        <circle class="cls-26" cx="401.42" cy="110.36" r="13.17" transform="translate(-11.68 162.02) rotate(-22.5)"/>
        <circle class="cls-20" cx="300" cy="52.06" r="13.17" transform="translate(51.05 227.38) rotate(-45)"/>
        <circle class="cls-15" cx="204.27" cy="107.33" r="13.17" transform="translate(52.87 281.48) rotate(-76.72)"/>
        <circle class="cls-22" cx="97.17" cy="169.17" r="13.17" transform="translate(-91.16 118.26) rotate(-45)"/>
        <circle class="cls-10" cx="97.17" cy="292.84" r="13.17" transform="translate(-178.61 154.48) rotate(-45)"/>
        <circle class="cls-25" cx="97.17" cy="404.04" r="13.17" transform="translate(-257.24 187.05) rotate(-45)"/>
        <circle class="cls-11" cx="192.9" cy="458.99" r="13.17" transform="translate(-298.13 541.27) rotate(-76.72)"/>
        <circle class="cls-4" cx="300" cy="520.48" r="13.17" transform="translate(-280.17 364.58) rotate(-45)"/>
      </g>
    </g>
  </g>
</svg>