<svg xmlns="http://www.w3.org/2000/svg" xmlns:xlink="http://www.w3.org/1999/xlink" width="2500" height="866" viewBox="0 0 63.8 22.1">
    <linearGradient id="a">
        <stop offset="0" stop-color="#45a9b3"/>
        <stop offset=".389" stop-color="#3faeb0"/>
        <stop offset="1" stop-color="#2cbbab"/>
    </linearGradient>
    <linearGradient xlink:href="#a" id="b" x1="26.253" x2="43.091" y1="18.725" y2="18.725" gradientTransform="matrix(1 0 0 -1 0 22.075)" gradientUnits="userSpaceOnUse"/>
    <linearGradient xlink:href="#a" id="c" x1="20.622" x2="37.459" y1="12.025" y2="12.025" gradientTransform="matrix(1 0 0 -1 0 22.075)" gradientUnits="userSpaceOnUse"/>
    <path fill="#252a2f" d="m63.6 16.4-1.5.2s-.1-.6-.6-1-2.2-.3-2.2.7c0 .9.7.8 2.1 1.1 1.3.3 2.4.7 2.4 2.5 0 1-.7 2.2-2.9 2.2-3.6 0-3.3-2.7-3.3-2.7h1.6s.1.9.7 1.1c.7.3 1.9.2 2.1-.4s.2-1.3-1.7-1.5c-1.9-.3-2.7-1.1-2.7-2.4.1-1.2.8-2.2 3.3-2.2 2.5.1 2.7 2.4 2.7 2.4zm-6.9 0-1.5.2s-.1-.6-.6-1-2.2-.3-2.2.7c0 .9.7.8 2.1 1.1 1.3.3 2.4.7 2.4 2.5 0 1-.7 2.2-2.9 2.2-3.6 0-3.3-2.7-3.3-2.7h1.7s.1.9.7 1.1c.7.3 1.9.2 2.1-.4s.2-1.3-1.7-1.5c-1.7-.2-2.6-.9-2.6-2v-.4c.1-1.2.8-2.2 3.2-2.2 2.3.1 2.6 2.4 2.6 2.4zm-8.5 2.8h1.7v.1c-.1.6-.4 2.7-3.3 2.7-2.6 0-3.5-2-3.5-4.1 0-2.2 1.3-3.8 3.7-3.8 2.7 0 2.9 2.6 2.9 2.6l-1.6.2s-.1-1.4-1.5-1.4-1.9 1.1-1.9 2.4.4 2.8 1.8 2.8 1.7-1.5 1.7-1.5zm-8.5-4.9v7.6h-1.4v-.7s-.5.9-1.7.9c-1.3 0-2.2-.6-2.3-2.9 0-2.4 1.5-3 2.5-3 .9 0 1.5.7 1.5.7v-2.6zm-1.4 4.8c0-.8-.1-1.7-1.3-1.7s-1.2 1.4-1.2 1.8c0 .5.1 1.6 1.2 1.6s1.3-.9 1.3-1.7zm-5.1-1v3.7h-1.5v-3.6c0-.5-.3-.9-.9-.9s-1.2.5-1.2 1v3.5h-1.5v-5.6h1.5v.8s.5-1 2-.9c1.7.2 1.6 1.8 1.6 2zm-7.8-1.8h1.5v5.6h-1.5zm0-2h1.5v1.3h-1.5zm-.6 2-1.6 5.6h-1.5l-1-3.7-1 3.7h-1.4l-1.6-5.6h1.6l.8 3.6 1.1-3.6h1.3l.9 3.7.8-3.7zm-10.3-2.1H16v7.6h-1.5zm-2.7 2.1h1.5v5.6h-1.5zm0-2h1.5v1.3h-1.5zm-1.2 4v3.5H9.2v-.7s-.4.5-1 .7c-.9.3-2.2.1-2.6-.9-.3-.8 0-1.7.8-2.1 1-.5 2.7-.4 2.7-.4s.1-.4-.1-.7c-.1-.3-.4-.4-.8-.4-1 0-1 .7-1 .7l-1.4-.1s0-.7.7-1.2c.4-.3.9-.4 1.8-.4 1.1 0 2.3.4 2.3 2zm-2.3 2.5c1-.2.9-1.4.9-1.4h-.4c-.3 0-.7 0-1 .1-.5.1-.7.3-.8.5-.1.3 0 .6.3.8.2.1.5.1 1 0zm-2.1-6.6v1.5H3.9v6.2H2.2v-6.3H0v-1.4z"/>
    <path fill="url(#b)" d="M43.1 2.3S41.7 4.4 39.3 4s-2.8-4-7.1-4c-5.3 0-5.9 4.5-5.9 4.5s1.5-2.2 3.8-1.8 3.2 4 7.9 4 5.1-4.4 5.1-4.4z"/>
    <path fill="url(#c)" d="M37.5 9s-1.4 2.1-3.8 1.7-2.8-4-7.1-4c-5.3 0-5.9 4.5-5.9 4.5s1.5-2.2 3.8-1.8c2.2.4 3.2 4 7.9 4S37.5 9 37.5 9z"/>
</svg>